# File produced by Open Asset Import Library (http://www.assimp.sf.net)
# (assimp v3.2.202087883)

mtllib 7565e6f425dd6d376d987ae9a225629c.mtl

# 82 vertex positions
v 0.276724 0.016216 0.096035
v 0.220211 -0.580741 0.005634
v 0.220211 0.016216 0.005634
v 0.276724 -0.580741 0.096035
v 0.265510 0.016216 -0.066260
v -0.260247 -0.580741 0.096035
v 0.276724 -0.580741 -0.084058
v -0.260247 0.016216 0.096035
v 0.276724 -0.048593 -0.084058
v -0.202054 0.016216 0.012840
v -0.202054 -0.580741 0.012840
v 0.276724 0.016216 -0.084058
v -0.260247 -0.028393 -0.084058
v -0.260247 -0.580741 -0.084058
v -0.260247 0.016216 -0.084058
v -0.260247 -0.022277 -0.084058
v 0.206663 -0.479099 0.005487
v 0.253619 0.016216 -0.075227
v 0.253619 -0.479099 -0.075227
v 0.206663 0.016216 0.005487
v -0.238853 -0.479099 -0.075227
v 0.259039 -0.479099 0.088566
v -0.189014 -0.479099 0.010925
v 0.259039 0.016216 0.088566
v -0.246213 -0.479099 0.088566
v -0.238853 0.016216 -0.075227
v -0.189014 0.016216 0.010925
v -0.246213 0.016216 0.088566
v -0.163195 0.010071 -0.084058
v -0.097086 0.045297 -0.084058
v -0.100600 0.008992 -0.084058
v -0.157622 0.067616 -0.084058
v -0.086768 0.079130 -0.084058
v -0.141281 0.121239 -0.084058
v -0.070356 0.108182 -0.084058
v -0.048975 0.130474 -0.084058
v -0.115273 0.167286 -0.084058
v -0.024079 0.144488 -0.084058
v 0.002639 0.149268 -0.084058
v 0.116149 0.167286 -0.084058
v 0.029369 0.144488 -0.084058
v -0.081384 0.202619 -0.084058
v 0.054265 0.130474 -0.084058
v 0.082261 0.202619 -0.084058
v 0.142153 0.121239 -0.084058
v -0.041911 0.224830 -0.084058
v 0.075647 0.108182 -0.084058
v 0.042788 0.224830 -0.084058
v 0.092055 0.079130 -0.084058
v 0.000439 0.232407 -0.084058
v 0.158501 0.067616 -0.084058
v 0.102369 0.045297 -0.084058
v 0.164077 0.010071 -0.084058
v 0.105886 0.008992 -0.084058
v 0.172647 0.021077 0.096035
v 0.110939 0.056304 0.096035
v 0.114457 0.019998 0.096035
v 0.167072 0.078621 0.096035
v 0.100624 0.090136 0.096035
v 0.150724 0.132244 0.096035
v 0.084214 0.119187 0.096035
v 0.062832 0.141480 0.096035
v 0.124719 0.178291 0.096035
v 0.037936 0.155493 0.096035
v 0.011218 0.160274 0.096035
v -0.106706 0.178291 0.096035
v -0.015512 0.155493 0.096035
v 0.090828 0.213625 0.096035
v -0.040408 0.141480 0.096035
v -0.072806 0.213625 0.096035
v -0.132702 0.132244 0.096035
v 0.051366 0.235836 0.096035
v -0.061789 0.119187 0.096035
v -0.033344 0.235836 0.096035
v -0.078201 0.090136 0.096035
v 0.009005 0.243412 0.096035
v -0.149055 0.078621 0.096035
v -0.088507 0.056304 0.096035
v -0.154628 0.021077 0.096035
v -0.092034 0.019998 0.096035
v -0.258839 -0.021515 -0.082180
v -0.258566 -0.021373 -0.081827

# 109 UV coordinates
vt 7.6854 16.5518 0
vt 10.6414 0 0
vt 10.6414 16.5518 0
vt 7.6854 0 0
vt -20.3979 0 0
vt -18.0418 16.5518 0
vt -20.3979 16.5518 0
vt -27.6383 16.5518 0
vt -42.5268 0 0
vt -27.6383 0 0
vt -17.4585 0 0
vt -42.5268 16.5518 0
vt -17.4585 14.7549 0
vt 28.2901 16.5518 0
vt 31.105 0 0
vt 31.105 16.5518 0
vt 28.2901 0 0
vt -17.4585 16.5518 0
vt 27.6383 0 0
vt 42.5268 15.315 0
vt 27.6383 14.7549 0
vt 42.5268 0 0
vt -19.1323 16.5518 0
vt -15.9984 -0 0
vt -15.9984 16.5518 0
vt -19.1323 15.315 0
vt -19.1323 0 0
vt 27.6383 16.5518 0
vt -19.1323 15.4846 0
vt 42.5268 15.4846 0
vt 42.5268 16.5518 0
vt 0 0 0
vt 1 1 0
vt 0 1 0
vt 1 0 0
vt 19.8049 2.81824 0
vt 17.2157 16.5518 0
vt 17.2157 2.81824 0
vt 19.8049 16.5518 0
vt 41.9338 3.46551 0
vt 29.5809 5.70348 0
vt 28.2789 3.46551 0
vt -8.22771 2.81824 0
vt -10.9508 16.5518 0
vt -10.9508 2.81824 0
vt 40.5519 5.85428 0
vt -8.22771 16.5518 0
vt 42.1379 8.00702 0
vt 28.1287 8.00702 0
vt 17.9989 16.5518 0
vt 15.2392 2.81824 0
vt 17.9989 2.81824 0
vt 15.2392 16.5518 0
vt -28.7664 2.81824 0
vt -31.4402 16.5518 0
vt -31.4402 2.81824 0
vt -28.7664 16.5518 0
vt 39.8361 16.3815 0
vt 38.0028 17.3582 0
vt 38.1004 16.3515 0
vt 39.6815 17.977 0
vt 37.7169 18.2962 0
vt 39.2282 19.4638 0
vt 37.2619 19.1018 0
vt 36.6691 19.7199 0
vt 38.5072 20.7406 0
vt 35.9787 20.1084 0
vt 35.2378 20.241 0
vt 32.0906 20.7406 0
vt 34.4968 20.1084 0
vt 37.5675 21.7202 0
vt 33.8064 19.7199 0
vt 33.0303 21.7202 0
vt 31.3695 19.4638 0
vt 36.4732 22.3361 0
vt 33.2136 19.1018 0
vt 34.1246 22.3361 0
vt 32.7586 18.2962 0
vt 35.2989 22.5462 0
vt 30.9163 17.977 0
vt 32.4727 17.3582 0
vt 30.7617 16.3815 0
vt 32.3751 16.3515 0
vt -30.524 16.6866 0
vt -32.235 17.6633 0
vt -32.1375 16.6567 0
vt -30.6786 18.2822 0
vt -32.521 18.6014 0
vt -31.1319 19.769 0
vt -32.9759 19.4069 0
vt -33.5688 20.025 0
vt -31.853 21.0457 0
vt -34.2592 20.4136 0
vt -35.0001 20.5461 0
vt -38.2696 21.0457 0
vt -35.741 20.4136 0
vt -32.7927 22.0254 0
vt -36.4314 20.025 0
vt -37.3299 22.0254 0
vt -38.9906 19.769 0
vt -33.8869 22.6413 0
vt -37.0243 19.4069 0
vt -36.2356 22.6413 0
vt -37.4792 18.6014 0
vt -35.0613 22.8513 0
vt -39.4439 18.2822 0
vt -37.7652 17.6633 0
vt -39.5985 16.6866 0
vt -37.8627 16.6567 0

# 22 vertex normals
vn 0.00847947 0 -0.0053008
vn 0.0084606 0 0.00533088
vn 0 0 0.01
vn 0 -0 -0.01
vn -0.00819455 0 -0.00573143
vn 0.00819455 0 0.00573143
vn -0.00857302 0 0.00514813
vn 0.00857302 -0 -0.00514813
vn -0.00847947 0 0.0053008
vn -0.0084606 0 -0.00533088
vn 0 -0.01 -0
vn 0 0.01 0
vn 0 0 0.0254
vn 0 -0 -0.0254
vn -0.0086437 0 -0.00502856
vn -0.00845926 0 0.00533301
vn 0.00865588 0 -0.00500756
vn 0.00805096 0 0.00593144
vn 0.0086437 0 0.00502856
vn 0.00845926 0 -0.00533301
vn -0.00865588 0 0.00500756
vn -0.00805096 0 -0.00593144

# Mesh 'mesh1_mesh1-geometry' with 27 faces
g mesh1_mesh1-geometry
usemtl material_0_1_8
f  1/1/1 2/2/1 3/3/1
f  2/2/1 1/1/1 4/4/1
f  2/5/2 5/6/2 3/7/2
f  1/8/3 6/9/3 4/10/3
f  4/10/4 6/9/4 1/8/4
f  7/11/2 5/6/2 2/5/2
f  6/9/3 1/8/3 8/12/3
f  8/12/4 1/8/4 6/9/4
f  9/13/2 5/6/2 7/11/2
f  10/14/5 6/15/5 8/16/5
f  8/16/6 6/15/6 10/14/6
f  6/15/5 10/14/5 11/17/5
f  11/17/6 10/14/6 6/15/6
f  5/6/2 9/13/2 12/18/2
f  7/19/4 13/20/4 9/21/4
f  13/20/4 7/19/4 14/22/4
f  15/23/7 11/24/7 10/25/7
f  10/25/8 11/24/8 15/23/8
f  11/24/7 13/26/7 14/27/7
f  14/27/8 13/26/8 11/24/8
f  9/21/4 13/20/4 12/28/4
f  16/29/7 11/24/7 15/23/7
f  15/23/8 11/24/8 16/29/8
f  13/26/7 11/24/7 16/29/7
f  16/29/8 11/24/8 13/26/8
f  12/28/4 13/20/4 16/30/4
f  12/28/4 16/30/4 15/31/4

# Mesh 'mesh1_mesh1-geometry' with 19 faces
g mesh1_mesh1-geometry
usemtl material_1_24
f  3/32/9 2/32/9 1/32/9
f  4/32/9 1/32/9 2/32/9
f  3/32/10 5/32/10 2/32/10
f  6/32/11 2/32/11 4/32/11
f  4/32/12 2/32/12 6/32/12
f  2/32/10 5/32/10 7/32/10
f  2/32/11 6/32/11 11/32/11
f  11/32/12 6/32/12 2/32/12
f  7/32/10 5/32/10 9/32/10
f  2/32/11 14/32/11 7/32/11
f  7/32/12 14/32/12 2/32/12
f  14/32/11 2/32/11 11/32/11
f  11/32/12 2/32/12 14/32/12
f  12/32/10 9/32/10 5/32/10
f  9/32/3 13/32/3 7/32/3
f  14/32/3 7/32/3 13/32/3
f  12/32/3 13/32/3 9/32/3
f  16/32/3 13/32/3 12/32/3
f  15/32/3 16/32/3 12/32/3

# Mesh 'mesh1_mesh1-geometry' with 4 faces
g mesh1_mesh1-geometry
usemtl material_1_3_0
f  1/33/13 8/34/13 4/35/13
f  1/33/14 4/35/14 8/34/14
f  6/32/13 4/35/13 8/34/13
f  6/32/14 8/34/14 4/35/14

# Mesh 'mesh1_mesh1-geometry' with 4 faces
g mesh1_mesh1-geometry
usemtl material_1_2_0
f  7/32/14 14/35/14 12/34/14
f  7/32/13 12/34/13 14/35/13
f  15/33/14 12/34/14 14/35/14
f  15/33/13 14/35/13 12/34/13

# Mesh 'mesh2_mesh2-geometry' with 12 faces
g mesh2_mesh2-geometry
usemtl material_0_1_8
f  17/36/15 18/37/15 19/38/15
f  18/37/15 17/36/15 20/39/15
f  21/40/12 17/41/12 19/42/12
f  22/43/16 20/44/16 17/45/16
f  17/41/12 21/40/12 23/46/12
f  20/44/16 22/43/16 24/47/16
f  17/41/12 25/48/12 22/49/12
f  26/50/17 23/51/17 21/52/17
f  25/48/12 17/41/12 23/46/12
f  23/51/17 26/50/17 27/53/17
f  23/54/18 28/55/18 25/56/18
f  28/55/18 23/54/18 27/57/18

# Mesh 'mesh2_mesh2-geometry' with 12 faces
g mesh2_mesh2-geometry
usemtl material_1_24
f  19//19 18//19 17//19
f  20//19 17//19 18//19
f  19//11 17//11 21//11
f  17//20 20//20 22//20
f  23//11 21//11 17//11
f  24//20 22//20 20//20
f  22//11 25//11 17//11
f  21//21 23//21 26//21
f  23//11 17//11 25//11
f  27//21 26//21 23//21
f  25//22 28//22 23//22
f  27//22 23//22 28//22

# Mesh 'mesh3_mesh3-geometry' with 48 faces
g mesh3_mesh3-geometry
usemtl material_0_1_8
f  29/58/4 30/59/4 31/60/4
f  30/59/4 29/58/4 32/61/4
f  31/60/3 30/59/3 29/58/3
f  32/61/3 29/58/3 30/59/3
f  30/59/4 32/61/4 33/62/4
f  33/62/3 32/61/3 30/59/3
f  33/62/4 32/61/4 34/63/4
f  34/63/3 32/61/3 33/62/3
f  33/62/4 34/63/4 35/64/4
f  35/64/3 34/63/3 33/62/3
f  35/64/4 34/63/4 36/65/4
f  36/65/3 34/63/3 35/64/3
f  36/65/4 34/63/4 37/66/4
f  37/66/3 34/63/3 36/65/3
f  36/65/4 37/66/4 38/67/4
f  38/67/3 37/66/3 36/65/3
f  38/67/4 37/66/4 39/68/4
f  39/68/3 37/66/3 38/67/3
f  40/69/4 39/68/4 37/66/4
f  37/66/3 39/68/3 40/69/3
f  40/69/4 41/70/4 39/68/4
f  39/68/3 41/70/3 40/69/3
f  40/69/4 37/66/4 42/71/4
f  42/71/3 37/66/3 40/69/3
f  40/69/4 43/72/4 41/70/4
f  41/70/3 43/72/3 40/69/3
f  40/69/4 42/71/4 44/73/4
f  44/73/3 42/71/3 40/69/3
f  45/74/4 43/72/4 40/69/4
f  40/69/3 43/72/3 45/74/3
f  44/73/4 42/71/4 46/75/4
f  46/75/3 42/71/3 44/73/3
f  45/74/4 47/76/4 43/72/4
f  43/72/3 47/76/3 45/74/3
f  44/73/4 46/75/4 48/77/4
f  48/77/3 46/75/3 44/73/3
f  45/74/4 49/78/4 47/76/4
f  47/76/3 49/78/3 45/74/3
f  48/77/4 46/75/4 50/79/4
f  50/79/3 46/75/3 48/77/3
f  51/80/4 49/78/4 45/74/4
f  45/74/3 49/78/3 51/80/3
f  51/80/4 52/81/4 49/78/4
f  49/78/3 52/81/3 51/80/3
f  53/82/4 52/81/4 51/80/4
f  51/80/3 52/81/3 53/82/3
f  52/81/4 53/82/4 54/83/4
f  54/83/3 53/82/3 52/81/3

# Mesh 'mesh4_mesh4-geometry' with 48 faces
g mesh4_mesh4-geometry
usemtl material_0_1_8
f  55/84/3 56/85/3 57/86/3
f  56/85/3 55/84/3 58/87/3
f  57/86/4 56/85/4 55/84/4
f  58/87/4 55/84/4 56/85/4
f  56/85/3 58/87/3 59/88/3
f  59/88/4 58/87/4 56/85/4
f  59/88/3 58/87/3 60/89/3
f  60/89/4 58/87/4 59/88/4
f  59/88/3 60/89/3 61/90/3
f  61/90/4 60/89/4 59/88/4
f  61/90/3 60/89/3 62/91/3
f  62/91/4 60/89/4 61/90/4
f  62/91/3 60/89/3 63/92/3
f  63/92/4 60/89/4 62/91/4
f  62/91/3 63/92/3 64/93/3
f  64/93/4 63/92/4 62/91/4
f  64/93/3 63/92/3 65/94/3
f  65/94/4 63/92/4 64/93/4
f  66/95/3 65/94/3 63/92/3
f  63/92/4 65/94/4 66/95/4
f  66/95/3 67/96/3 65/94/3
f  65/94/4 67/96/4 66/95/4
f  66/95/3 63/92/3 68/97/3
f  68/97/4 63/92/4 66/95/4
f  66/95/3 69/98/3 67/96/3
f  67/96/4 69/98/4 66/95/4
f  66/95/3 68/97/3 70/99/3
f  70/99/4 68/97/4 66/95/4
f  71/100/3 69/98/3 66/95/3
f  66/95/4 69/98/4 71/100/4
f  70/99/3 68/97/3 72/101/3
f  72/101/4 68/97/4 70/99/4
f  71/100/3 73/102/3 69/98/3
f  69/98/4 73/102/4 71/100/4
f  70/99/3 72/101/3 74/103/3
f  74/103/4 72/101/4 70/99/4
f  71/100/3 75/104/3 73/102/3
f  73/102/4 75/104/4 71/100/4
f  74/103/3 72/101/3 76/105/3
f  76/105/4 72/101/4 74/103/4
f  77/106/3 75/104/3 71/100/3
f  71/100/4 75/104/4 77/106/4
f  77/106/3 78/107/3 75/104/3
f  75/104/4 78/107/4 77/106/4
f  79/108/3 78/107/3 77/106/3
f  77/106/4 78/107/4 79/108/4
f  78/107/3 79/108/3 80/109/3
f  80/109/4 79/108/4 78/107/4

# Mesh 'mesh5_mesh5-geometry' with 3 faces
g mesh5_mesh5-geometry
usemtl material_1_0
l  2 7
l  14 7
l  11 14

# Mesh 'mesh6_mesh6-geometry' with 2 faces
g mesh6_mesh6-geometry
usemtl material_1_0
l  16 81
l  81 82

# Mesh 'mesh7_mesh7-geometry' with 1 faces
g mesh7_mesh7-geometry
usemtl material_1_0
l  20 9

# Mesh 'mesh8_mesh8-geometry' with 1 faces
g mesh8_mesh8-geometry
usemtl material_1_0
l  24 28

# Mesh 'mesh9_mesh9-geometry' with 1 faces
g mesh9_mesh9-geometry
usemtl material_1_0
l  18 26

# Mesh 'mesh10_mesh10-geometry' with 1 faces
g mesh10_mesh10-geometry
usemtl material_1_0
l  4 6

# Mesh 'mesh11_mesh11-geometry' with 1 faces
g mesh11_mesh11-geometry
usemtl material_1_0
l  27 13

