# File produced by Open Asset Import Library (http://www.assimp.sf.net)
# (assimp v3.2.202087883)

mtllib 8bc53bae41a8105f5c7506815f553527.mtl

# 122 vertex positions
v -0.168849 -0.075408 -0.021377
v -0.162308 -0.075408 -0.021377
v -0.165578 -0.075826 -0.021485
v -0.171897 -0.074187 -0.021060
v -0.159259 -0.074187 -0.021060
v -0.174516 -0.072242 -0.020554
v 0.161028 -0.075518 -0.021405
v 0.167631 -0.075518 -0.021405
v 0.164330 -0.075938 -0.021515
v 0.157952 -0.074285 -0.021085
v 0.211285 -0.091438 -0.025542
v 0.224880 -0.106788 -0.029530
v -0.211569 -0.091438 -0.025542
v -0.156642 -0.072242 -0.020554
v 0.170708 -0.074285 -0.021085
v 0.246037 0.029709 0.005937
v -0.222839 -0.106788 -0.029530
v -0.176524 -0.069710 -0.019896
v 0.155310 -0.072323 -0.020575
v 0.230959 0.029709 0.005937
v -0.246246 0.029709 0.005937
v -0.232592 0.029709 0.005937
v -0.154633 -0.069710 -0.019896
v 0.173350 -0.072323 -0.020575
v -0.153370 -0.066759 -0.019129
v -0.177787 -0.066759 -0.019129
v 0.153283 -0.069765 -0.019911
v -0.178218 -0.063592 -0.018307
v 0.175377 -0.069765 -0.019911
v 0.152009 -0.066789 -0.019137
v 0.176651 -0.066789 -0.019137
v -0.203782 0.050750 0.005937
v 0.202149 0.050750 0.028225
v 0.230959 0.029709 0.028225
v 0.214504 0.081212 0.028225
v -0.232592 0.029709 0.028225
v -0.216137 0.081212 0.005937
v -0.152938 -0.063592 -0.018307
v -0.177787 -0.060426 -0.017484
v 0.151574 -0.063592 -0.018307
v 0.177086 -0.063592 -0.018307
v 0.202149 0.050750 0.005937
v 0.214504 0.081212 0.005937
v 0.195200 0.072500 0.028225
v 0.329309 0.017015 0.015756
v 0.329309 -0.484902 0.103809
v 0.329309 -0.484902 -0.114661
v 0.329309 0.017015 0.017525
v -0.203782 0.050750 0.028225
v -0.216137 0.081212 0.028225
v -0.196833 0.072500 0.005937
v -0.153370 -0.060426 -0.017484
v -0.176524 -0.057477 -0.016717
v 0.152009 -0.060398 -0.017477
v 0.176651 -0.060398 -0.017477
v 0.167631 -0.051667 -0.015208
v 0.161028 -0.051667 -0.015208
v 0.164330 -0.051247 -0.015099
v 0.195200 0.072500 0.005937
v 0.169953 0.114751 0.028225
v 0.186771 0.127625 0.028225
v -0.320451 -0.484617 0.103471
v -0.320451 0.016730 0.015976
v -0.320451 -0.484617 -0.114294
v -0.320451 0.016730 0.017286
v -0.196833 0.072500 0.028225
v -0.171586 0.114751 0.005937
v -0.188404 0.127625 0.005937
v -0.156642 -0.054943 -0.016059
v -0.174516 -0.054943 -0.016059
v -0.154633 -0.057477 -0.016717
v 0.153283 -0.057420 -0.016703
v 0.175377 -0.057420 -0.016703
v 0.170708 -0.052901 -0.015528
v -0.162308 -0.051777 -0.015237
v -0.168849 -0.051777 -0.015237
v -0.165578 -0.051359 -0.015128
v 0.169953 0.114751 0.005937
v 0.186771 0.127625 0.005937
v 0.135761 0.150156 0.028225
v -0.171586 0.114751 0.028225
v -0.188404 0.127625 0.028225
v -0.137393 0.150156 0.005937
v -0.171897 -0.052998 -0.015554
v 0.155310 -0.054863 -0.016038
v 0.173350 -0.054863 -0.016038
v 0.157952 -0.052901 -0.015528
v -0.159259 -0.052998 -0.015554
v 0.135761 0.150156 0.005937
v 0.149211 0.166514 0.028225
v -0.137393 0.150156 0.028225
v -0.150844 0.166514 0.005937
v 0.149211 0.166514 0.005937
v 0.094414 0.176858 0.028225
v -0.150844 0.166514 0.028225
v -0.096048 0.176858 0.005937
v 0.094414 0.176858 0.005937
v 0.103792 0.195847 0.005937
v 0.103792 0.195847 0.028225
v -0.096048 0.176858 0.028225
v -0.105426 0.195847 0.028225
v -0.105426 0.195847 0.005937
v 0.048079 0.193459 0.005937
v 0.048079 0.193459 0.028225
v -0.049713 0.193459 0.028225
v -0.049713 0.193459 0.005937
v -0.000816 0.199093 0.005937
v 0.052896 0.214084 0.005937
v -0.000816 0.199093 0.028225
v -0.054527 0.214084 0.028225
v 0.052896 0.214084 0.028225
v -0.054527 0.214084 0.005937
v -0.000816 0.220271 0.005937
v -0.000816 0.220271 0.028225
v 0.329309 0.029709 0.005937
v 0.329309 -0.497598 -0.131078
v 0.329309 0.029709 0.028225
v -0.320451 0.029709 0.005937
v -0.320451 -0.497598 -0.131078
v -0.320451 0.029709 0.028225
v -0.320451 -0.497598 0.118874
v 0.329309 -0.497598 0.118874

# 0 UV coordinates

# 34 vertex normals
vn 0 0.0063878 -0.0245836
vn 0 0 -0.0254
vn 0 0 0.0254
vn 0.0254 0 0
vn -0.0254 0 0
vn 0 -0.0063878 0.0245836
vn 0 -0.0254 -0
vn 0 0.0254 0
vn -0.0241951 -0.00773016 0
vn -0.0231516 -0.0104482 0
vn 0.0241951 -0.00773016 -0
vn 0.0231516 -0.0104482 -0
vn 0 -0.00430337 -0.0250328
vn -0.0201697 -0.0154384 0
vn 0.0201697 -0.0154384 -0
vn 0.0231516 0.0104482 0
vn 0.0241951 0.00773016 0
vn -0.0231516 0.0104482 0
vn -0.0241951 0.00773016 0
vn -0.0161312 -0.01962 0
vn 0.0201697 0.0154384 0
vn 0.0161312 -0.01962 -0
vn -0.0201697 0.0154384 0
vn 0.0161312 0.01962 0
vn -0.0161312 0.01962 0
vn -0.0112478 -0.0227738 0
vn 0.0112478 0.0227738 0
vn 0.0112478 -0.0227738 -0
vn -0.0112478 0.0227738 0
vn -0.00577512 -0.0247348 0
vn 0.00577512 0.0247348 0
vn 0.00577512 -0.0247348 -0
vn -0.00577512 0.0247348 0
vn 0 0.00430337 0.0250328

# Mesh 'mesh1_mesh1-geometry' with 106 faces
g mesh1_mesh1-geometry
usemtl material_0_24
f  1//1 2//1 3//1
f  2//1 1//1 4//1
f  2//1 4//1 5//1
f  5//1 4//1 6//1
f  7//1 8//1 9//1
f  8//1 7//1 10//1
f  11//1 12//1 13//1
f  5//1 6//1 14//1
f  8//1 10//1 15//1
f  12//1 11//1 16//1
f  17//1 13//1 12//1
f  14//1 6//1 18//1
f  15//1 10//1 19//1
f  16//1 11//1 20//1
f  13//1 17//1 21//1
f  13//1 21//1 22//1
f  14//1 18//1 23//1
f  15//1 19//1 24//1
f  25//1 18//1 26//1
f  23//1 18//1 25//1
f  24//1 19//1 27//1
f  25//1 26//1 28//1
f  24//1 27//1 29//1
f  29//1 30//1 31//1
f  22//2 32//2 20//2
f  33//3 34//3 35//3
f  34//3 33//3 36//3
f  32//2 22//2 37//2
f  38//1 28//1 39//1
f  25//1 28//1 38//1
f  29//1 27//1 30//1
f  31//1 30//1 40//1
f  31//1 40//1 41//1
f  42//2 20//2 32//2
f  20//2 42//2 43//2
f  33//3 35//3 44//3
f  45//4 46//4 47//4
f  46//4 45//4 48//4
f  49//3 36//3 33//3
f  36//3 49//3 50//3
f  32//2 37//2 51//2
f  52//1 39//1 53//1
f  38//1 39//1 52//1
f  41//1 40//1 54//1
f  41//1 54//1 55//1
f  56//1 57//1 58//1
f  43//2 42//2 59//2
f  60//3 35//3 61//3
f  44//3 35//3 60//3
f  62//5 63//5 64//5
f  63//5 62//5 65//5
f  50//3 49//3 66//3
f  67//2 37//2 68//2
f  51//2 37//2 67//2
f  69//1 53//1 70//1
f  52//1 53//1 71//1
f  55//1 54//1 72//1
f  55//1 72//1 73//1
f  74//1 57//1 56//1
f  75//1 76//1 77//1
f  43//2 59//2 78//2
f  43//2 78//2 79//2
f  60//3 61//3 80//3
f  50//3 66//3 81//3
f  50//3 81//3 82//3
f  67//2 68//2 83//2
f  69//1 70//1 84//1
f  71//1 53//1 69//1
f  73//1 72//1 85//1
f  73//1 85//1 86//1
f  86//1 87//1 74//1
f  74//1 87//1 57//1
f  88//1 84//1 76//1
f  88//1 76//1 75//1
f  79//2 78//2 89//2
f  80//3 61//3 90//3
f  82//3 81//3 91//3
f  83//2 68//2 92//2
f  69//1 84//1 88//1
f  86//1 85//1 87//1
f  79//2 89//2 93//2
f  80//3 90//3 94//3
f  82//3 91//3 95//3
f  83//2 92//2 96//2
f  93//2 89//2 97//2
f  93//2 97//2 98//2
f  94//3 90//3 99//3
f  95//3 91//3 100//3
f  95//3 100//3 101//3
f  96//2 92//2 102//2
f  98//2 97//2 103//2
f  94//3 99//3 104//3
f  101//3 100//3 105//3
f  96//2 102//2 106//2
f  98//2 107//2 108//2
f  98//2 103//2 107//2
f  104//3 99//3 109//3
f  101//3 109//3 110//3
f  101//3 105//3 109//3
f  106//2 102//2 107//2
f  109//3 99//3 111//3
f  108//2 107//2 112//2
f  107//2 102//2 112//2
f  110//3 109//3 111//3
f  108//2 112//2 113//2
f  110//3 111//3 114//3

# Mesh 'mesh1_mesh1-geometry' with 250 faces
g mesh1_mesh1-geometry
usemtl material_1_24
f  3//6 2//6 1//6
f  4//6 1//6 2//6
f  2//6 3//6 7//6
f  1//6 13//6 3//6
f  4//6 13//6 1//6
f  5//6 4//6 2//6
f  9//6 7//6 3//6
f  10//6 2//6 7//6
f  11//6 3//6 13//6
f  6//6 13//6 4//6
f  6//6 4//6 5//6
f  5//6 2//6 10//6
f  9//6 8//6 7//6
f  9//6 3//6 11//6
f  10//6 7//6 8//6
f  13//6 12//6 11//6
f  18//6 13//6 6//6
f  14//6 6//6 5//6
f  19//6 5//6 10//6
f  9//6 11//6 8//6
f  15//6 10//6 8//6
f  16//6 11//6 12//6
f  12//6 13//6 17//6
f  22//6 13//6 18//6
f  18//6 6//6 14//6
f  14//6 5//6 19//6
f  19//6 10//6 15//6
f  8//6 11//6 15//6
f  20//6 11//6 16//6
f  16//6 12//6 115//6
f  21//6 17//6 13//6
f  17//6 116//6 12//6
f  22//6 21//6 13//6
f  26//6 22//6 18//6
f  23//6 18//6 14//6
f  27//6 14//6 19//6
f  24//6 19//6 15//6
f  15//6 11//6 24//6
f  20//6 29//6 11//6
f  20//7 16//7 34//7
f  115//6 12//6 116//6
f  115//7 117//7 16//7
f  21//6 118//6 17//6
f  116//6 17//6 119//6
f  22//7 36//7 21//7
f  28//6 22//6 26//6
f  26//6 18//6 25//6
f  25//6 18//6 23//6
f  23//6 14//6 27//6
f  27//6 19//6 24//6
f  24//6 11//6 29//6
f  31//6 29//6 20//6
f  34//7 16//7 117//7
f  22//8 34//8 20//8
f  20//7 34//7 22//7
f  34//9 35//10 20//9
f  116//5 47//5 115//5
f  117//5 115//5 45//5
f  118//6 119//6 17//6
f  118//7 21//7 120//7
f  116//7 121//7 119//7
f  119//8 121//8 116//8
f  120//7 21//7 36//7
f  34//8 22//8 36//8
f  36//7 22//7 34//7
f  22//11 37//12 36//11
f  39//6 22//6 28//6
f  28//6 26//6 25//6
f  25//6 23//6 30//6
f  30//6 23//6 27//6
f  29//6 27//6 24//6
f  31//6 30//6 29//6
f  41//6 31//6 20//6
f  34//13 117//13 120//13
f  22//6 58//6 20//6
f  20//3 32//3 22//3
f  43//10 20//9 35//10
f  35//2 34//2 33//2
f  45//5 115//5 47//5
f  116//5 122//5 47//5
f  48//5 117//5 45//5
f  119//4 118//4 64//4
f  120//4 63//4 118//4
f  121//7 116//7 122//7
f  122//8 116//8 121//8
f  119//4 64//4 121//4
f  36//13 34//13 120//13
f  36//2 33//2 34//2
f  50//12 36//11 37//12
f  37//3 22//3 32//3
f  53//6 22//6 39//6
f  39//6 28//6 38//6
f  38//6 28//6 25//6
f  40//6 25//6 30//6
f  30//6 27//6 29//6
f  40//6 30//6 31//6
f  41//6 40//6 31//6
f  55//6 41//6 20//6
f  120//13 117//13 121//13
f  58//6 56//6 20//6
f  58//6 22//6 77//6
f  32//3 20//3 42//3
f  43//3 42//3 20//3
f  35//10 61//14 43//10
f  44//2 35//2 33//2
f  47//5 46//5 45//5
f  46//5 47//5 122//5
f  46//5 117//5 48//5
f  48//5 45//5 46//5
f  63//4 64//4 118//4
f  65//4 63//4 120//4
f  122//13 121//13 117//13
f  62//4 121//4 64//4
f  33//2 36//2 49//2
f  50//2 49//2 36//2
f  37//12 68//15 50//12
f  51//3 37//3 32//3
f  70//6 22//6 53//6
f  53//6 39//6 52//6
f  52//6 39//6 38//6
f  38//6 25//6 40//6
f  54//6 40//6 41//6
f  55//6 54//6 41//6
f  73//6 55//6 20//6
f  121//4 62//4 120//4
f  56//6 74//6 20//6
f  58//6 57//6 56//6
f  77//6 22//6 76//6
f  58//6 77//6 57//6
f  42//7 33//7 32//7
f  59//3 42//3 43//3
f  79//14 43//10 61//14
f  61//2 35//2 60//2
f  60//2 35//2 44//2
f  44//16 33//17 59//16
f  122//5 117//5 46//5
f  64//4 63//4 62//4
f  65//4 62//4 63//4
f  62//4 65//4 120//4
f  49//7 32//7 33//7
f  66//2 49//2 50//2
f  82//15 50//12 68//15
f  68//3 37//3 67//3
f  67//3 37//3 51//3
f  51//18 32//19 66//18
f  84//6 22//6 70//6
f  70//6 53//6 69//6
f  71//6 53//6 52//6
f  52//6 38//6 40//6
f  54//6 52//6 40//6
f  72//6 54//6 55//6
f  73//6 72//6 55//6
f  86//6 73//6 20//6
f  74//6 86//6 20//6
f  56//6 57//6 74//6
f  76//6 22//6 84//6
f  77//6 76//6 75//6
f  77//6 75//6 57//6
f  42//17 59//16 33//17
f  78//3 59//3 43//3
f  79//3 78//3 43//3
f  61//14 90//20 79//14
f  80//2 61//2 60//2
f  60//21 44//16 78//21
f  59//16 78//21 44//16
f  49//19 66//18 32//19
f  81//2 66//2 50//2
f  82//2 81//2 50//2
f  68//15 92//22 82//15
f  83//3 68//3 67//3
f  67//23 51//18 81//23
f  66//18 81//23 51//18
f  84//6 70//6 69//6
f  69//6 53//6 71//6
f  71//6 52//6 54//6
f  72//6 71//6 54//6
f  85//6 72//6 73//6
f  86//6 85//6 73//6
f  74//6 87//6 86//6
f  57//6 87//6 74//6
f  76//6 84//6 88//6
f  75//6 76//6 88//6
f  57//6 75//6 87//6
f  89//3 78//3 79//3
f  93//20 79//14 90//20
f  90//2 61//2 80//2
f  80//24 60//21 89//24
f  78//21 89//24 60//21
f  91//2 81//2 82//2
f  95//22 82//15 92//22
f  92//3 68//3 83//3
f  83//25 67//23 91//25
f  81//23 91//25 67//23
f  88//6 84//6 69//6
f  69//6 71//6 72//6
f  85//6 69//6 72//6
f  87//6 85//6 86//6
f  75//6 88//6 87//6
f  93//3 89//3 79//3
f  93//20 90//20 98//26
f  94//2 90//2 80//2
f  80//24 89//24 94//27
f  95//2 91//2 82//2
f  95//22 92//22 101//28
f  96//3 92//3 83//3
f  83//25 91//25 96//29
f  88//6 69//6 85//6
f  87//6 88//6 85//6
f  97//3 89//3 93//3
f  99//26 98//26 90//20
f  98//3 97//3 93//3
f  99//2 90//2 94//2
f  97//27 94//27 89//24
f  100//2 91//2 95//2
f  102//28 101//28 92//22
f  101//2 100//2 95//2
f  102//3 92//3 96//3
f  100//29 96//29 91//25
f  98//26 99//26 108//30
f  103//3 97//3 98//3
f  104//2 99//2 94//2
f  94//27 97//27 104//31
f  101//28 102//28 110//32
f  105//2 100//2 101//2
f  106//3 102//3 96//3
f  96//29 100//29 106//33
f  111//30 108//30 99//26
f  108//3 107//3 98//3
f  103//31 104//31 97//27
f  107//3 103//3 98//3
f  109//2 99//2 104//2
f  112//32 110//32 102//28
f  110//2 109//2 101//2
f  105//33 106//33 100//29
f  109//2 105//2 101//2
f  107//3 102//3 106//3
f  108//30 111//30 113//7
f  111//2 99//2 109//2
f  112//3 107//3 108//3
f  104//31 103//31 109//8
f  107//8 109//8 103//31
f  110//32 112//32 114//7
f  112//3 102//3 107//3
f  111//2 109//2 110//2
f  106//33 105//33 107//8
f  109//8 107//8 105//33
f  114//7 113//7 111//30
f  113//3 112//3 108//3
f  113//7 114//7 112//32
f  114//2 111//2 110//2

# Mesh 'mesh1_mesh1-geometry' with 136 faces
g mesh1_mesh1-geometry
usemtl material_2_24
f  7//1 3//1 2//1
f  3//1 13//1 1//1
f  1//1 13//1 4//1
f  3//1 7//1 9//1
f  7//1 2//1 10//1
f  13//1 3//1 11//1
f  4//1 13//1 6//1
f  10//1 2//1 5//1
f  11//1 3//1 9//1
f  6//1 13//1 18//1
f  10//1 5//1 19//1
f  8//1 11//1 9//1
f  18//1 13//1 22//1
f  19//1 5//1 14//1
f  15//1 11//1 8//1
f  115//1 12//1 16//1
f  12//1 116//1 17//1
f  18//1 22//1 26//1
f  19//1 14//1 27//1
f  24//1 11//1 15//1
f  11//1 29//1 20//1
f  34//8 16//8 20//8
f  116//1 12//1 115//1
f  16//8 117//8 115//8
f  17//1 118//1 21//1
f  119//1 17//1 116//1
f  21//8 36//8 22//8
f  26//1 22//1 28//1
f  27//1 14//1 23//1
f  29//1 11//1 24//1
f  20//1 29//1 31//1
f  117//8 16//8 34//8
f  20//17 35//16 34//17
f  115//4 47//4 116//4
f  45//4 115//4 117//4
f  17//1 119//1 118//1
f  120//8 21//8 118//8
f  36//8 21//8 120//8
f  36//19 37//18 22//19
f  28//1 22//1 39//1
f  30//1 23//1 25//1
f  27//1 23//1 30//1
f  20//1 31//1 41//1
f  120//34 117//34 34//34
f  20//1 58//1 22//1
f  35//16 20//17 43//16
f  47//4 115//4 45//4
f  47//4 122//4 116//4
f  45//4 117//4 48//4
f  64//5 118//5 119//5
f  118//5 63//5 120//5
f  121//5 64//5 119//5
f  120//34 34//34 36//34
f  37//18 36//19 50//18
f  39//1 22//1 53//1
f  30//1 25//1 40//1
f  20//1 41//1 55//1
f  121//34 117//34 120//34
f  20//1 56//1 58//1
f  77//1 22//1 58//1
f  43//16 61//21 35//16
f  122//4 47//4 46//4
f  48//4 117//4 46//4
f  118//5 64//5 63//5
f  120//5 63//5 65//5
f  117//34 121//34 122//34
f  64//5 121//5 62//5
f  50//18 68//23 37//18
f  53//1 22//1 70//1
f  40//1 25//1 38//1
f  20//1 55//1 73//1
f  120//5 62//5 121//5
f  20//1 74//1 56//1
f  76//1 22//1 77//1
f  57//1 77//1 58//1
f  32//8 33//8 42//8
f  61//21 43//16 79//21
f  59//10 33//9 44//10
f  46//4 117//4 122//4
f  120//5 65//5 62//5
f  33//8 32//8 49//8
f  68//23 50//18 82//23
f  66//12 32//11 51//12
f  70//1 22//1 84//1
f  40//1 38//1 52//1
f  40//1 52//1 54//1
f  20//1 73//1 86//1
f  20//1 86//1 74//1
f  84//1 22//1 76//1
f  57//1 75//1 77//1
f  33//9 59//10 42//9
f  79//21 90//24 61//21
f  78//14 44//10 60//14
f  44//10 78//14 59//10
f  32//11 66//12 49//11
f  82//23 92//25 68//23
f  81//15 51//12 67//15
f  51//12 81//15 66//12
f  54//1 52//1 71//1
f  54//1 71//1 72//1
f  87//1 75//1 57//1
f  90//24 79//21 93//24
f  89//20 60//14 80//20
f  60//14 89//20 78//14
f  92//25 82//23 95//25
f  91//22 67//15 83//22
f  67//15 91//22 81//15
f  72//1 71//1 69//1
f  72//1 69//1 85//1
f  87//1 88//1 75//1
f  98//27 90//24 93//24
f  94//26 89//20 80//20
f  101//29 92//25 95//25
f  96//28 91//22 83//22
f  85//1 69//1 88//1
f  85//1 88//1 87//1
f  90//24 98//27 99//27
f  89//20 94//26 97//26
f  92//25 101//29 102//29
f  91//22 96//28 100//28
f  108//31 99//27 98//27
f  104//30 97//26 94//26
f  110//33 102//29 101//29
f  106//32 100//28 96//28
f  99//27 108//31 111//31
f  97//26 104//30 103//30
f  102//29 110//33 112//33
f  100//28 106//32 105//32
f  113//8 111//31 108//31
f  109//7 103//30 104//30
f  103//30 109//7 107//7
f  114//8 112//33 110//33
f  107//7 105//32 106//32
f  105//32 107//7 109//7
f  111//31 113//8 114//8
f  112//33 114//8 113//8

