# File produced by Open Asset Import Library (http://www.assimp.sf.net)
# (assimp v3.2.202087883)

mtllib 22f7580ee1819eb7fc435963bd99e667.mtl

# 96 vertex positions
v 0.082328 -0.216994 -0.307250
v -0.082328 -0.216994 -0.307250
v -0.000000 -0.216994 -0.318089
v -0.159044 -0.216994 -0.275474
v 0.159044 -0.216994 -0.275474
v -0.224923 -0.216994 -0.224923
v -0.082328 0.217840 -0.307250
v -0.000000 0.217840 -0.313013
v -0.000000 0.217840 -0.318089
v 0.082328 0.217840 -0.307250
v 0.081015 0.217840 -0.302347
v 0.159044 0.217840 -0.275474
v 0.224923 -0.216994 -0.224923
v -0.081015 0.217840 -0.302347
v -0.159044 0.217840 -0.275474
v 0.156507 0.217840 -0.271078
v 0.224923 0.217840 -0.224923
v -0.275474 -0.216994 -0.159044
v -0.156507 0.217840 -0.271078
v 0.221334 0.217840 -0.221334
v 0.275474 -0.216994 -0.159044
v -0.224923 0.217840 -0.224923
v 0.275474 0.217840 -0.159044
v -0.307250 -0.216994 -0.082328
v -0.221334 0.217840 -0.221334
v -0.275474 0.217840 -0.159044
v 0.271078 0.217840 -0.156507
v 0.307250 -0.216994 -0.082328
v -0.271078 0.217840 -0.156507
v -0.307250 0.217840 -0.082328
v 0.307250 0.217840 -0.082328
v -0.318089 -0.216994 0.000000
v -0.302347 0.217840 -0.081015
v 0.302347 0.217840 -0.081015
v 0.318089 -0.216994 0.000000
v -0.318089 0.217840 0.000000
v 0.318089 0.217840 0.000000
v -0.307250 -0.216994 0.082328
v -0.313013 0.217840 0.000000
v 0.313013 0.217840 0.000000
v 0.307250 -0.216994 0.082328
v -0.307250 0.217840 0.082328
v 0.302347 0.217840 0.081015
v -0.275474 -0.216994 0.159044
v -0.302347 0.217840 0.081015
v 0.307250 0.217840 0.082328
v 0.275474 -0.216994 0.159044
v -0.271078 0.217840 0.156507
v -0.275474 0.217840 0.159044
v 0.271078 0.217840 0.156507
v -0.224923 -0.216994 0.224923
v -0.221334 0.217840 0.221334
v 0.275474 0.217840 0.159044
v 0.224923 -0.216994 0.224923
v -0.224923 0.217840 0.224923
v 0.221334 0.217840 0.221334
v -0.159044 -0.216994 0.275474
v -0.156507 0.217840 0.271078
v 0.224923 0.217840 0.224923
v 0.159044 -0.216994 0.275474
v -0.159044 0.217840 0.275474
v 0.156507 0.217840 0.271078
v 0.159044 0.217840 0.275474
v -0.082328 -0.216994 0.307250
v -0.081015 0.217840 0.302347
v 0.081015 0.217840 0.302347
v 0.082328 -0.216994 0.307250
v -0.082328 0.217840 0.307250
v 0.082328 0.217840 0.307250
v -0.000000 -0.216994 0.318089
v -0.000000 0.217840 0.313013
v -0.000000 0.217840 0.318089
v -0.000000 -0.218686 -0.313013
v 0.081015 -0.218686 -0.302347
v 0.156507 -0.218686 -0.271078
v -0.081015 -0.218686 -0.302347
v 0.221334 -0.218686 -0.221334
v -0.156507 -0.218686 -0.271078
v -0.221334 -0.218686 -0.221334
v 0.271078 -0.218686 -0.156507
v -0.271078 -0.218686 -0.156507
v -0.302347 -0.218686 -0.081015
v 0.302347 -0.218686 -0.081015
v -0.313013 -0.218686 0.000000
v 0.313013 -0.218686 0.000000
v -0.302347 -0.218686 0.081015
v 0.302347 -0.218686 0.081015
v -0.271078 -0.218686 0.156507
v 0.271078 -0.218686 0.156507
v -0.221334 -0.218686 0.221334
v 0.221334 -0.218686 0.221334
v -0.156507 -0.218686 0.271078
v 0.156507 -0.218686 0.271078
v -0.081015 -0.218686 0.302347
v 0.081015 -0.218686 0.302347
v -0.000000 -0.218686 0.313013

# 0 UV coordinates

# 26 vertex normals
vn 0 -1 0
vn 0 1 0
vn -0.258819 0 -0.965926
vn 0 0 -1
vn 0.258819 0 -0.965926
vn -0.5 0 -0.866025
vn 0.5 0 -0.866025
vn 0.707107 0 -0.707107
vn -0.707107 0 -0.707107
vn 0.258819 0 0.965926
vn 0 0 1
vn -0.258819 0 0.965926
vn -0.5 0 0.866025
vn 0.866025 0 -0.5
vn -0.866025 0 -0.5
vn 0.5 0 0.866025
vn -0.707107 0 0.707107
vn -0.965926 0 -0.258819
vn 0.965926 0 -0.258819
vn -0.866025 0 0.5
vn 0.707107 0 0.707107
vn -1 0 0
vn 0.866025 0 0.5
vn 1 0 0
vn -0.965926 0 0.258819
vn 0.965926 0 0.258819

# Mesh 'mesh1_mesh1-geometry' with 70 faces
g mesh1_mesh1-geometry
usemtl material_0_24
f  1//1 2//1 3//1
f  2//1 1//1 4//1
f  4//1 1//1 5//1
f  4//1 5//1 6//1
f  7//2 8//2 9//2
f  8//2 10//2 9//2
f  10//2 11//2 12//2
f  6//1 5//1 13//1
f  14//2 7//2 15//2
f  8//2 7//2 14//2
f  10//2 8//2 11//2
f  12//2 11//2 16//2
f  12//2 16//2 17//2
f  6//1 13//1 18//1
f  14//2 15//2 19//2
f  17//2 16//2 20//2
f  18//1 13//1 21//1
f  19//2 15//2 22//2
f  17//2 20//2 23//2
f  18//1 21//1 24//1
f  25//2 22//2 26//2
f  19//2 22//2 25//2
f  23//2 20//2 27//2
f  24//1 21//1 28//1
f  29//2 26//2 30//2
f  25//2 26//2 29//2
f  23//2 27//2 31//2
f  24//1 28//1 32//1
f  29//2 30//2 33//2
f  31//2 27//2 34//2
f  32//1 28//1 35//1
f  33//2 30//2 36//2
f  31//2 34//2 37//2
f  32//1 35//1 38//1
f  33//2 36//2 39//2
f  37//2 34//2 40//2
f  38//1 35//1 41//1
f  39//2 36//2 42//2
f  37//2 40//2 43//2
f  38//1 41//1 44//1
f  39//2 42//2 45//2
f  37//2 43//2 46//2
f  44//1 41//1 47//1
f  48//2 42//2 49//2
f  45//2 42//2 48//2
f  46//2 43//2 50//2
f  44//1 47//1 51//1
f  48//2 49//2 52//2
f  46//2 50//2 53//2
f  51//1 47//1 54//1
f  52//2 49//2 55//2
f  53//2 50//2 56//2
f  51//1 54//1 57//1
f  52//2 55//2 58//2
f  53//2 56//2 59//2
f  57//1 54//1 60//1
f  58//2 55//2 61//2
f  59//2 56//2 62//2
f  59//2 62//2 63//2
f  57//1 60//1 64//1
f  58//2 61//2 65//2
f  63//2 62//2 66//2
f  64//1 60//1 67//1
f  65//2 61//2 68//2
f  63//2 66//2 69//2
f  64//1 67//1 70//1
f  65//2 68//2 71//2
f  69//2 66//2 71//2
f  71//2 68//2 72//2
f  69//2 71//2 72//2

# Mesh 'mesh1_mesh1-geometry' with 140 faces
g mesh1_mesh1-geometry
usemtl material_1_24
f  3//2 2//2 1//2
f  4//2 1//2 2//2
f  2//3 9//4 3//4
f  3//4 10//5 1//5
f  5//2 1//2 4//2
f  4//6 7//3 2//3
f  9//4 2//3 7//3
f  10//5 3//4 9//4
f  12//7 1//5 10//5
f  1//5 12//7 5//7
f  6//2 5//2 4//2
f  7//3 4//6 15//6
f  17//8 5//7 12//7
f  13//2 5//2 6//2
f  6//9 15//6 4//6
f  5//7 17//8 13//8
f  18//2 13//2 6//2
f  15//6 6//9 22//9
f  14//10 73//11 8//11
f  8//11 74//12 11//12
f  11//12 75//13 16//13
f  17//8 21//14 13//8
f  21//2 13//2 18//2
f  26//15 6//9 18//15
f  6//9 26//15 22//9
f  19//16 76//10 14//10
f  73//11 14//10 76//10
f  74//12 8//11 73//11
f  75//13 11//12 74//12
f  77//17 16//13 75//13
f  21//14 17//8 23//14
f  16//13 77//17 20//17
f  24//2 21//2 18//2
f  18//15 30//18 26//15
f  76//10 19//16 78//16
f  73//1 74//1 76//1
f  75//1 76//1 74//1
f  77//1 78//1 75//1
f  23//14 28//19 21//14
f  77//17 27//20 20//17
f  28//2 21//2 24//2
f  30//18 18//15 24//18
f  25//21 78//16 19//16
f  78//1 76//1 75//1
f  79//1 78//1 77//1
f  28//19 23//14 31//19
f  27//20 77//17 80//20
f  32//2 28//2 24//2
f  24//18 36//22 30//18
f  81//23 25//21 29//23
f  78//16 25//21 79//21
f  81//1 79//1 77//1
f  31//19 35//24 28//19
f  80//1 81//1 77//1
f  80//20 34//25 27//20
f  35//2 28//2 32//2
f  36//22 24//18 32//22
f  82//26 29//23 33//26
f  25//21 81//23 79//21
f  29//23 82//26 81//23
f  35//24 31//19 37//24
f  83//1 81//1 80//1
f  34//25 80//20 83//25
f  38//2 35//2 32//2
f  32//22 42//25 36//22
f  33//26 84//24 82//26
f  82//1 81//1 83//1
f  37//24 41//26 35//24
f  83//25 40//22 34//25
f  41//2 35//2 38//2
f  42//25 32//22 38//25
f  84//24 33//26 39//24
f  84//1 82//1 85//1
f  85//1 82//1 83//1
f  41//26 37//24 46//26
f  40//22 83//25 85//22
f  44//2 41//2 38//2
f  38//25 49//20 42//25
f  39//24 86//19 84//24
f  87//1 84//1 85//1
f  46//26 47//23 41//26
f  85//22 43//18 40//22
f  47//2 41//2 44//2
f  49//20 38//25 44//20
f  86//19 39//24 45//19
f  86//1 84//1 87//1
f  43//18 85//22 87//18
f  47//23 46//26 53//23
f  51//2 47//2 44//2
f  44//20 55//17 49//20
f  88//14 45//19 48//14
f  45//19 88//14 86//19
f  89//1 86//1 87//1
f  87//18 50//15 43//18
f  53//23 54//21 47//23
f  54//2 47//2 51//2
f  55//17 44//20 51//17
f  90//8 48//14 52//8
f  48//14 90//8 88//14
f  88//1 86//1 89//1
f  50//15 87//18 89//15
f  54//21 53//23 59//21
f  57//2 54//2 51//2
f  57//13 55//17 51//17
f  58//7 90//8 52//8
f  90//1 88//1 91//1
f  91//1 88//1 89//1
f  89//15 56//9 50//15
f  63//16 54//21 59//21
f  60//2 54//2 57//2
f  55//17 57//13 61//13
f  90//8 58//7 92//7
f  93//1 90//1 91//1
f  56//9 89//15 91//9
f  54//21 63//16 60//16
f  64//2 60//2 57//2
f  64//12 61//13 57//13
f  65//5 92//7 58//7
f  92//1 90//1 93//1
f  93//6 56//9 91//9
f  56//9 93//6 62//6
f  69//10 60//16 63//16
f  67//2 60//2 64//2
f  61//13 64//12 68//12
f  92//7 65//5 94//5
f  95//1 92//1 93//1
f  95//3 62//6 93//6
f  60//16 69//10 67//10
f  62//6 95//3 66//3
f  70//2 67//2 64//2
f  70//11 68//12 64//12
f  71//4 94//5 65//5
f  94//1 92//1 95//1
f  72//11 67//10 69//10
f  96//4 66//3 95//3
f  67//10 72//11 70//11
f  68//12 70//11 72//11
f  94//5 71//4 96//4
f  96//1 94//1 95//1
f  66//3 96//4 71//4

# Mesh 'mesh1_mesh1-geometry' with 166 faces
g mesh1_mesh1-geometry
usemtl material_2_24
f  3//11 9//11 2//10
f  1//12 10//12 3//11
f  2//10 7//10 4//16
f  7//10 2//10 9//11
f  9//11 3//11 10//12
f  10//12 1//12 12//13
f  5//13 12//13 1//12
f  15//16 4//16 7//10
f  9//1 8//1 7//1
f  9//1 10//1 8//1
f  12//1 11//1 10//1
f  12//13 5//13 17//17
f  4//16 15//16 6//21
f  15//1 7//1 14//1
f  14//1 7//1 8//1
f  11//1 8//1 10//1
f  16//1 11//1 12//1
f  13//17 17//17 5//13
f  17//1 16//1 12//1
f  22//21 6//21 15//16
f  19//1 15//1 14//1
f  8//4 73//4 14//3
f  11//5 74//5 8//4
f  16//7 75//7 11//5
f  13//17 21//20 17//17
f  20//1 16//1 17//1
f  18//23 6//21 26//23
f  22//21 26//23 6//21
f  22//1 15//1 19//1
f  14//3 76//3 19//6
f  76//3 14//3 73//4
f  73//4 8//4 74//5
f  74//5 11//5 75//7
f  75//7 16//7 77//8
f  23//20 17//17 21//20
f  20//8 77//8 16//7
f  23//1 20//1 17//1
f  26//23 30//26 18//23
f  26//1 22//1 25//1
f  25//1 22//1 19//1
f  78//6 19//6 76//3
f  76//2 74//2 73//2
f  74//2 76//2 75//2
f  75//2 78//2 77//2
f  21//20 28//25 23//20
f  20//8 27//14 77//8
f  27//1 20//1 23//1
f  24//26 18//23 30//26
f  30//1 26//1 29//1
f  29//1 26//1 25//1
f  19//6 78//6 25//9
f  75//2 76//2 78//2
f  77//2 78//2 79//2
f  31//25 23//20 28//25
f  80//14 77//8 27//14
f  31//1 27//1 23//1
f  30//26 36//24 24//26
f  33//1 30//1 29//1
f  29//15 25//9 81//15
f  79//9 25//9 78//6
f  77//2 79//2 81//2
f  28//25 35//22 31//25
f  77//2 81//2 80//2
f  27//14 34//19 80//14
f  34//1 27//1 31//1
f  32//24 24//26 36//24
f  36//1 30//1 33//1
f  33//18 29//15 82//18
f  79//9 81//15 25//9
f  81//15 82//18 29//15
f  37//22 31//25 35//22
f  80//2 81//2 83//2
f  83//19 80//14 34//19
f  37//1 34//1 31//1
f  36//24 42//19 32//24
f  39//1 36//1 33//1
f  82//18 84//22 33//18
f  83//2 81//2 82//2
f  35//22 41//18 37//22
f  34//19 40//24 83//19
f  40//1 34//1 37//1
f  38//19 32//24 42//19
f  42//1 36//1 39//1
f  39//22 33//18 84//22
f  85//2 82//2 84//2
f  83//2 82//2 85//2
f  46//18 37//22 41//18
f  85//24 83//19 40//24
f  43//1 40//1 37//1
f  42//19 49//14 38//19
f  45//1 42//1 39//1
f  84//22 86//25 39//22
f  85//2 84//2 87//2
f  46//1 43//1 37//1
f  41//18 47//15 46//18
f  40//24 43//26 85//24
f  44//14 38//19 49//14
f  49//1 42//1 48//1
f  48//1 42//1 45//1
f  45//25 39//22 86//25
f  87//2 84//2 86//2
f  87//26 85//24 43//26
f  50//1 43//1 46//1
f  53//15 46//18 47//15
f  49//14 55//8 44//14
f  52//1 49//1 48//1
f  48//20 45//25 88//20
f  86//25 88//20 45//25
f  87//2 86//2 89//2
f  43//26 50//23 87//26
f  53//1 50//1 46//1
f  47//15 54//9 53//15
f  51//8 44//14 55//8
f  55//1 49//1 52//1
f  52//17 48//20 90//17
f  88//20 90//17 48//20
f  89//2 86//2 88//2
f  89//23 87//26 50//23
f  56//1 50//1 53//1
f  59//9 53//15 54//9
f  51//8 55//8 57//7
f  58//1 55//1 52//1
f  52//17 90//17 58//13
f  91//2 88//2 90//2
f  89//2 88//2 91//2
f  50//23 56//21 89//23
f  59//1 56//1 53//1
f  59//9 54//9 63//6
f  61//7 57//7 55//8
f  61//1 55//1 58//1
f  92//13 58//13 90//17
f  91//2 90//2 93//2
f  91//21 89//23 56//21
f  62//1 56//1 59//1
f  60//6 63//6 54//9
f  63//1 62//1 59//1
f  57//7 61//7 64//5
f  65//1 61//1 58//1
f  58//13 92//13 65//12
f  93//2 90//2 92//2
f  91//21 56//21 93//16
f  62//16 93//16 56//21
f  63//6 60//6 69//3
f  66//1 62//1 63//1
f  68//5 64//5 61//7
f  68//1 61//1 65//1
f  94//12 65//12 92//13
f  93//2 92//2 95//2
f  93//16 62//16 95//10
f  67//3 69//3 60//6
f  69//1 66//1 63//1
f  66//10 95//10 62//16
f  64//5 68//5 70//4
f  71//1 68//1 65//1
f  65//12 94//12 71//11
f  95//2 92//2 94//2
f  69//3 67//3 72//4
f  71//1 66//1 69//1
f  95//10 66//10 96//11
f  70//4 72//4 67//3
f  72//4 70//4 68//5
f  72//1 68//1 71//1
f  96//11 71//11 94//12
f  95//2 94//2 96//2
f  72//1 71//1 69//1
f  71//11 96//11 66//10

