# File produced by Open Asset Import Library (http://www.assimp.sf.net)
# (assimp v3.2.202087883)

mtllib 74c548ef3ca7b1987515e7bb7dba4019.mtl

# 155 vertex positions
v 0.122441 0.076306 -0.027815
v 0.109407 0.107774 -0.013001
v 0.122441 0.076306 -0.013001
v 0.109407 0.107774 -0.027815
v 0.132349 0.078961 -0.013001
v 0.127061 0.041210 -0.027815
v 0.132349 0.078961 -0.027815
v 0.088672 0.134796 -0.013001
v 0.137144 0.042537 -0.013001
v 0.118290 0.112903 -0.013001
v 0.127061 0.041210 -0.013001
v 0.137144 0.042537 -0.027815
v 0.118290 0.112903 -0.027815
v 0.088672 0.134796 -0.027815
v 0.127061 -0.172263 -0.027815
v 0.061649 0.155531 -0.027815
v 0.095925 0.142049 -0.013001
v 0.137144 -0.172263 -0.013001
v 0.095925 0.142049 -0.027815
v 0.127061 -0.172263 -0.013001
v 0.137144 -0.172263 -0.027815
v 0.061649 0.155531 -0.013001
v 0.030182 0.168566 -0.027815
v 0.066778 0.164415 -0.027815
v 0.066778 0.164415 -0.013001
v 0.030182 0.168566 -0.013001
v -0.003588 0.173011 -0.027815
v 0.032837 0.178474 -0.027815
v 0.032837 0.178474 -0.013001
v -0.003588 0.173011 -0.013001
v -0.037356 0.168566 -0.027815
v -0.040011 0.178474 -0.027815
v -0.040011 0.178474 -0.013001
v -0.003588 0.183269 -0.027815
v -0.037356 0.168566 -0.013001
v -0.003588 0.183269 -0.013001
v -0.068825 0.155531 -0.027815
v -0.073953 0.164415 -0.027815
v -0.073953 0.164415 -0.013001
v -0.068825 0.155531 -0.013001
v -0.095846 0.134796 -0.027815
v -0.103099 0.142049 -0.027815
v -0.103099 0.142049 -0.013001
v -0.095846 0.134796 -0.013001
v -0.116581 0.107774 -0.013001
v -0.125465 0.112903 -0.027815
v -0.125465 0.112903 -0.013001
v -0.116581 0.107774 -0.027815
v -0.129615 0.076306 -0.013001
v -0.139524 0.078961 -0.013001
v -0.139524 0.078961 -0.027815
v -0.129615 0.076306 -0.027815
v -0.134235 0.041210 -0.013001
v -0.144319 0.042537 -0.013001
v -0.144319 0.042537 -0.027815
v -0.134235 0.041210 -0.027815
v -0.134235 -0.172263 -0.013001
v -0.144319 -0.172263 -0.027815
v -0.134235 -0.172263 -0.027815
v -0.144319 -0.172263 -0.013001
v 0.122441 0.076306 0.011419
v 0.109407 0.107774 0.026233
v 0.122441 0.076306 0.026233
v 0.109407 0.107774 0.011419
v 0.132349 0.078961 0.026233
v 0.127061 0.041210 0.011419
v 0.088672 0.134796 0.026233
v 0.137144 0.042537 0.026233
v 0.118290 0.112903 0.026233
v 0.127061 0.041210 0.026233
v 0.088672 0.134796 0.011419
v 0.137144 0.042537 0.011419
v 0.118290 0.112903 0.011419
v 0.127061 -0.172263 0.018826
v 0.061649 0.155531 0.011419
v 0.095925 0.142049 0.026233
v 0.127061 -0.172263 0.026233
v 0.132349 0.078961 0.011419
v 0.137144 -0.187077 0.026233
v 0.095925 0.142049 0.011419
v 0.127061 -0.172263 0.011419
v 0.061649 0.155531 0.026233
v 0.137144 -0.172263 0.018826
v 0.127061 -0.187077 0.018826
v 0.030182 0.168566 0.011419
v 0.066778 0.164415 0.026233
v 0.127061 -0.187077 0.026233
v 0.137144 -0.172263 0.011419
v 0.137144 -0.187077 0.018826
v 0.030182 0.168566 0.026233
v 0.066778 0.164415 0.011419
v -0.003588 0.173011 0.011419
v 0.032837 0.178474 0.026233
v -0.003588 0.173011 0.026233
v 0.032837 0.178474 0.011419
v -0.037356 0.168566 0.011419
v -0.040011 0.178474 0.026233
v -0.003588 0.183269 0.026233
v -0.037356 0.168566 0.026233
v -0.003588 0.183269 0.011419
v -0.068825 0.155531 0.011419
v -0.073953 0.164415 0.026233
v -0.068825 0.155531 0.026233
v -0.040011 0.178474 0.011419
v -0.095846 0.134796 0.011419
v -0.103099 0.142049 0.026233
v -0.073953 0.164415 0.011419
v -0.095846 0.134796 0.026233
v -0.116581 0.107774 0.026233
v -0.125465 0.112903 0.026233
v -0.103099 0.142049 0.011419
v -0.116581 0.107774 0.011419
v -0.125465 0.112903 0.011419
v -0.129615 0.076306 0.026233
v -0.139524 0.078961 0.026233
v -0.139524 0.078961 0.011419
v -0.129615 0.076306 0.011419
v -0.134235 0.041210 0.026233
v -0.144319 0.042537 0.026233
v -0.144319 0.042537 0.011419
v -0.134235 0.041210 0.011419
v -0.134235 -0.187077 0.026233
v -0.144319 -0.172263 0.018826
v -0.134235 -0.172263 0.018826
v -0.144319 -0.187077 0.026233
v -0.144319 -0.187077 0.018826
v -0.144319 -0.172263 0.011419
v -0.134235 -0.172263 0.011419
v -0.134235 -0.187077 0.018826
v -0.244085 -0.172263 -0.019308
v -0.244085 -0.172263 0.018826
v -0.144319 -0.172263 -0.019308
v -0.244085 -0.690748 -0.057443
v -0.134235 -0.172263 -0.019308
v 0.229958 -0.172263 -0.019308
v -0.244085 -0.690748 0.046254
v 0.229958 -0.690748 -0.057443
v 0.229958 -0.172263 0.018826
v 0.127061 -0.172263 -0.019308
v 0.229958 -0.690748 0.046254
v 0.137144 -0.172263 -0.019308
v -0.134235 -0.187077 -0.019308
v -0.144319 -0.187077 -0.019308
v -0.144319 -0.187077 -0.027815
v -0.134235 -0.187077 -0.027815
v 0.127061 -0.187077 -0.019308
v 0.137144 -0.187077 -0.019308
v 0.137144 -0.187077 -0.027815
v 0.127061 -0.187077 -0.027815
v -0.244085 -0.690748 0.049217
v 0.229958 -0.690748 0.049217
v -0.244085 -0.172988 0.021827
v 0.229958 -0.172988 0.021827
v 0.229958 -0.172263 0.018826
v 0.229958 -0.690748 0.046254

# 4 UV coordinates
vt 0 0 0
vt 1 0 0
vt 0 1 0
vt 1 1 0

# 34 vertex normals
vn 0.0245345 0.006574 0
vn 0.021997 0.0127 0
vn -0.0245345 -0.006574 -0
vn -0.021997 -0.0127 0
vn 0 0 -0.0254
vn 0 0 0.0254
vn 0.0251827 0.00331536 0
vn -0.0251827 -0.00331536 -0
vn 0.0179605 0.0179605 0
vn -0.0179605 -0.0179605 0
vn 0.0254 0 0
vn -0.0254 0 -0
vn 0.0127 0.021997 0
vn -0.0127 -0.021997 -0
vn 0 0.0254 0
vn -0 -0.0254 0
vn 0.006574 0.0245345 0
vn -0.006574 -0.0245345 -0
vn -0.006574 0.0245345 0
vn 0.006574 -0.0245345 0
vn -0.0127 0.021997 0
vn 0.0127 -0.021997 0
vn -0.0179605 0.0179605 0
vn 0.0179605 -0.0179605 0
vn -0.021997 0.0127 0
vn 0.021997 -0.0127 0
vn -0.0245345 0.006574 0
vn 0.0245345 -0.006574 0
vn -0.0251827 0.00331536 0
vn 0.0251827 -0.00331536 0
vn 0 0.00134178 0.0253645
vn 0 0.00186314 -0.0253316
vn 0 -0.00134178 -0.0253645
vn -0 -0.00186314 0.0253316

# Mesh 'mesh1_mesh1-geometry' with 228 faces
g mesh1_mesh1-geometry
usemtl material_0_24
f  1//1 2//2 3//1
f  2//2 1//1 4//2
f  3//3 2//4 1//3
f  4//4 1//3 2//4
f  5//5 3//5 2//5
f  2//6 3//6 5//6
f  3//1 6//7 1//1
f  1//3 6//8 3//3
f  1//6 7//6 4//6
f  4//5 7//5 1//5
f  4//2 8//9 2//2
f  2//4 8//10 4//4
f  9//5 3//5 5//5
f  5//6 3//6 9//6
f  5//5 2//5 10//5
f  10//6 2//6 5//6
f  6//7 3//1 11//7
f  11//8 3//3 6//8
f  6//6 12//6 1//6
f  1//5 12//5 6//5
f  1//6 12//6 7//6
f  7//5 12//5 1//5
f  4//6 7//6 13//6
f  13//5 7//5 4//5
f  8//9 4//2 14//9
f  14//10 4//4 8//10
f  10//5 2//5 8//5
f  8//6 2//6 10//6
f  9//5 11//5 3//5
f  3//6 11//6 9//6
f  5//3 12//8 9//8
f  9//7 12//7 5//1
f  13//4 5//3 10//4
f  10//2 5//1 13//2
f  11//11 15//11 6//11
f  6//12 15//12 11//12
f  15//6 12//6 6//6
f  6//5 12//5 15//5
f  12//8 5//3 7//3
f  7//1 5//1 12//7
f  5//3 13//4 7//3
f  7//1 13//2 5//1
f  4//6 13//6 14//6
f  14//5 13//5 4//5
f  16//13 8//9 14//9
f  14//10 8//10 16//14
f  10//5 8//5 17//5
f  17//6 8//6 10//6
f  18//5 11//5 9//5
f  9//6 11//6 18//6
f  12//12 18//12 9//12
f  9//11 18//11 12//11
f  10//4 19//10 13//4
f  13//2 19//9 10//2
f  15//11 11//11 20//11
f  20//12 11//12 15//12
f  12//6 15//6 21//6
f  21//5 15//5 12//5
f  14//6 13//6 19//6
f  19//5 13//5 14//5
f  8//9 16//13 22//13
f  22//14 16//14 8//10
f  14//6 19//6 16//6
f  16//5 19//5 14//5
f  17//5 8//5 22//5
f  22//6 8//6 17//6
f  19//10 10//4 17//10
f  17//9 10//2 19//9
f  11//5 18//5 20//5
f  20//6 18//6 11//6
f  18//12 12//12 21//12
f  21//11 12//11 18//11
f  18//15 15//15 20//15
f  20//16 15//16 18//16
f  15//15 18//15 21//15
f  21//16 18//16 15//16
f  23//17 22//13 16//13
f  16//14 22//14 23//18
f  16//6 19//6 24//6
f  24//5 19//5 16//5
f  17//5 22//5 25//5
f  25//6 22//6 17//6
f  17//10 24//14 19//10
f  19//9 24//13 17//9
f  22//13 23//17 26//17
f  26//18 23//18 22//14
f  16//6 24//6 23//6
f  23//5 24//5 16//5
f  25//5 22//5 26//5
f  26//6 22//6 25//6
f  24//14 17//10 25//14
f  25//13 17//9 24//13
f  27//15 26//17 23//17
f  23//18 26//18 27//16
f  23//6 24//6 28//6
f  28//5 24//5 23//5
f  25//5 26//5 29//5
f  29//6 26//6 25//6
f  25//14 28//18 24//14
f  24//13 28//17 25//13
f  26//17 27//15 30//15
f  30//16 27//16 26//18
f  23//6 28//6 27//6
f  27//5 28//5 23//5
f  29//5 26//5 30//5
f  30//6 26//6 29//6
f  28//18 25//14 29//18
f  29//17 25//13 28//17
f  31//19 30//15 27//15
f  27//16 30//16 31//20
f  32//6 27//6 28//6
f  28//5 27//5 32//5
f  29//5 30//5 33//5
f  33//6 30//6 29//6
f  29//18 34//16 28//18
f  28//17 34//15 29//17
f  30//15 31//19 35//19
f  35//20 31//20 30//16
f  32//6 31//6 27//6
f  27//5 31//5 32//5
f  32//6 28//6 34//6
f  34//5 28//5 32//5
f  35//5 33//5 30//5
f  30//6 33//6 35//6
f  29//5 33//5 36//5
f  36//6 33//6 29//6
f  34//16 29//18 36//16
f  36//15 29//17 34//15
f  37//21 35//19 31//19
f  31//20 35//20 37//22
f  38//6 31//6 32//6
f  32//5 31//5 38//5
f  36//16 32//20 34//16
f  34//15 32//19 36//15
f  35//5 39//5 33//5
f  33//6 39//6 35//6
f  32//20 36//16 33//20
f  33//19 36//15 32//19
f  35//19 37//21 40//21
f  40//22 37//22 35//20
f  38//6 37//6 31//6
f  31//5 37//5 38//5
f  33//20 38//22 32//20
f  32//19 38//21 33//19
f  40//5 39//5 35//5
f  35//6 39//6 40//6
f  38//22 33//20 39//22
f  39//21 33//19 38//21
f  41//23 40//21 37//21
f  37//22 40//22 41//24
f  42//6 37//6 38//6
f  38//5 37//5 42//5
f  40//5 43//5 39//5
f  39//6 43//6 40//6
f  39//22 42//24 38//22
f  38//21 42//23 39//21
f  40//21 41//23 44//23
f  44//24 41//24 40//22
f  42//6 41//6 37//6
f  37//5 41//5 42//5
f  44//5 43//5 40//5
f  40//6 43//6 44//6
f  42//24 39//22 43//24
f  43//23 39//21 42//23
f  41//23 45//25 44//23
f  44//24 45//26 41//24
f  46//6 41//6 42//6
f  42//5 41//5 46//5
f  44//5 47//5 43//5
f  43//6 47//6 44//6
f  43//24 46//26 42//24
f  42//23 46//25 43//23
f  45//25 41//23 48//25
f  48//26 41//24 45//26
f  45//5 47//5 44//5
f  44//6 47//6 45//6
f  46//6 48//6 41//6
f  41//5 48//5 46//5
f  46//26 43//24 47//26
f  47//25 43//23 46//25
f  48//25 49//27 45//25
f  45//26 49//28 48//26
f  45//5 50//5 47//5
f  47//6 50//6 45//6
f  51//6 48//6 46//6
f  46//5 48//5 51//5
f  47//26 51//28 46//26
f  46//25 51//27 47//25
f  49//27 48//25 52//27
f  52//28 48//26 49//28
f  49//5 50//5 45//5
f  45//6 50//6 49//6
f  51//28 47//26 50//28
f  50//27 47//25 51//27
f  51//6 52//6 48//6
f  48//5 52//5 51//5
f  52//27 53//29 49//27
f  49//28 53//30 52//28
f  49//5 54//5 50//5
f  50//6 54//6 49//6
f  50//28 55//30 51//28
f  51//27 55//29 50//27
f  55//6 52//6 51//6
f  51//5 52//5 55//5
f  53//29 52//27 56//29
f  56//30 52//28 53//30
f  53//5 54//5 49//5
f  49//6 54//6 53//6
f  55//30 50//28 54//30
f  54//29 50//27 55//29
f  55//6 56//6 52//6
f  52//5 56//5 55//5
f  56//12 57//12 53//12
f  53//11 57//11 56//11
f  57//5 54//5 53//5
f  53//6 54//6 57//6
f  54//11 58//11 55//11
f  55//12 58//12 54//12
f  58//6 56//6 55//6
f  55//5 56//5 58//5
f  57//12 56//12 59//12
f  59//11 56//11 57//11
f  54//5 57//5 60//5
f  60//6 57//6 54//6
f  58//11 54//11 60//11
f  60//12 54//12 58//12
f  56//6 58//6 59//6
f  59//5 58//5 56//5

# Mesh 'mesh2_mesh2-geometry' with 190 faces
g mesh2_mesh2-geometry
usemtl material_0_24
f  61//1 62//2 63//1
f  62//2 61//1 64//2
f  63//3 62//4 61//3
f  64//4 61//3 62//4
f  65//5 63//5 62//5
f  62//6 63//6 65//6
f  63//1 66//7 61//1
f  61//3 66//8 63//3
f  64//2 67//9 62//2
f  62//4 67//10 64//4
f  68//5 63//5 65//5
f  65//6 63//6 68//6
f  65//5 62//5 69//5
f  69//6 62//6 65//6
f  66//7 63//1 70//7
f  70//8 63//3 66//8
f  67//9 64//2 71//9
f  71//10 64//4 67//10
f  69//5 62//5 67//5
f  67//6 62//6 69//6
f  68//5 70//5 63//5
f  63//6 70//6 68//6
f  65//3 72//8 68//8
f  68//7 72//7 65//1
f  73//4 65//3 69//4
f  69//2 65//1 73//2
f  70//11 74//11 66//11
f  66//12 74//12 70//12
f  75//13 67//9 71//9
f  71//10 67//10 75//14
f  69//5 67//5 76//5
f  76//6 67//6 69//6
f  68//5 77//5 70//5
f  70//6 77//6 68//6
f  72//8 65//3 78//3
f  78//1 65//1 72//7
f  72//12 79//12 68//12
f  68//11 79//11 72//11
f  65//3 73//4 78//3
f  78//1 73//2 65//1
f  69//4 80//10 73//4
f  73//2 80//9 69//2
f  74//11 70//11 77//11
f  77//12 70//12 74//12
f  66//11 74//11 81//11
f  81//12 74//12 66//12
f  67//9 75//13 82//13
f  82//14 75//14 67//10
f  76//5 67//5 82//5
f  82//6 67//6 76//6
f  80//10 69//4 76//10
f  76//9 69//2 80//9
f  79//5 77//5 68//5
f  68//6 77//6 79//6
f  79//12 72//12 83//12
f  83//11 72//11 79//11
f  74//12 84//12 77//12
f  83//15 81//15 74//15
f  85//17 82//13 75//13
f  75//14 82//14 85//18
f  76//5 82//5 86//5
f  86//6 82//6 76//6
f  86//14 80//10 76//10
f  76//9 80//9 86//13
f  77//5 79//5 87//5
f  87//6 79//6 77//6
f  83//12 72//12 88//12
f  88//11 72//11 83//11
f  89//12 79//12 83//12
f  83//11 79//11 89//11
f  87//12 77//12 84//12
f  81//15 83//15 88//15
f  82//13 85//17 90//17
f  90//18 85//18 82//14
f  86//5 82//5 90//5
f  90//6 82//6 86//6
f  80//10 86//14 91//14
f  91//13 86//13 80//9
f  92//15 90//17 85//17
f  85//18 90//18 92//16
f  86//5 90//5 93//5
f  93//6 90//6 86//6
f  93//18 91//14 86//14
f  86//13 91//13 93//17
f  90//17 92//15 94//15
f  94//16 92//16 90//18
f  93//5 90//5 94//5
f  94//6 90//6 93//6
f  91//14 93//18 95//18
f  95//17 93//17 91//13
f  96//19 94//15 92//15
f  92//16 94//16 96//20
f  93//5 94//5 97//5
f  97//6 94//6 93//6
f  98//16 95//18 93//18
f  93//17 95//17 98//15
f  94//15 96//19 99//19
f  99//20 96//20 94//16
f  99//5 97//5 94//5
f  94//6 97//6 99//6
f  93//5 97//5 98//5
f  98//6 97//6 93//6
f  95//18 98//16 100//16
f  100//15 98//15 95//17
f  101//21 99//19 96//19
f  96//20 99//20 101//22
f  99//5 102//5 97//5
f  97//6 102//6 99//6
f  97//20 100//16 98//16
f  98//15 100//15 97//19
f  99//19 101//21 103//21
f  103//22 101//22 99//20
f  103//5 102//5 99//5
f  99//6 102//6 103//6
f  102//22 104//20 97//20
f  97//19 104//19 102//21
f  100//16 97//20 104//20
f  104//19 97//19 100//15
f  105//23 103//21 101//21
f  101//22 103//22 105//24
f  103//5 106//5 102//5
f  102//6 106//6 103//6
f  104//20 102//22 107//22
f  107//21 102//21 104//19
f  103//21 105//23 108//23
f  108//24 105//24 103//22
f  108//5 106//5 103//5
f  103//6 106//6 108//6
f  106//24 107//22 102//22
f  102//21 107//21 106//23
f  105//23 109//25 108//23
f  108//24 109//26 105//24
f  108//5 110//5 106//5
f  106//6 110//6 108//6
f  107//22 106//24 111//24
f  111//23 106//23 107//21
f  109//25 105//23 112//25
f  112//26 105//24 109//26
f  109//5 110//5 108//5
f  108//6 110//6 109//6
f  113//26 106//24 110//26
f  110//25 106//23 113//25
f  106//24 113//26 111//24
f  111//23 113//25 106//23
f  112//25 114//27 109//25
f  109//26 114//28 112//26
f  109//5 115//5 110//5
f  110//6 115//6 109//6
f  110//26 116//28 113//26
f  113//25 116//27 110//25
f  114//27 112//25 117//27
f  117//28 112//26 114//28
f  114//5 115//5 109//5
f  109//6 115//6 114//6
f  116//28 110//26 115//28
f  115//27 110//25 116//27
f  117//27 118//29 114//27
f  114//28 118//30 117//28
f  114//5 119//5 115//5
f  115//6 119//6 114//6
f  115//28 120//30 116//28
f  116//27 120//29 115//27
f  118//29 117//27 121//29
f  121//30 117//28 118//30
f  118//5 119//5 114//5
f  114//6 119//6 118//6
f  120//30 115//28 119//30
f  119//29 115//27 120//29
f  121//12 122//12 118//12
f  118//11 122//11 121//11
f  122//5 119//5 118//5
f  118//6 119//6 122//6
f  119//11 123//11 120//11
f  120//12 123//12 119//12
f  122//12 121//12 124//12
f  124//11 121//11 122//11
f  119//5 122//5 125//5
f  125//6 122//6 119//6
f  119//11 126//11 123//11
f  123//12 126//12 119//12
f  120//11 123//11 127//11
f  127//12 123//12 120//12
f  124//12 121//12 128//12
f  128//11 121//11 124//11
f  129//12 122//12 124//12
f  124//11 122//11 129//11
f  126//11 119//11 125//11
f  125//12 119//12 126//12
f  124//15 127//15 123//15
f  127//15 124//15 128//15

# Mesh 'mesh2_mesh2-geometry' with 22 faces
g mesh2_mesh2-geometry
usemtl material_1_24
f  77//11 84//11 74//11
f  74//16 81//16 83//16
f  84//11 77//11 87//11
f  84//6 83//6 74//6
f  74//5 83//5 84//5
f  88//16 83//16 81//16
f  79//15 84//15 87//15
f  87//16 84//16 79//16
f  84//15 79//15 89//15
f  89//16 79//16 84//16
f  83//6 84//6 89//6
f  89//5 84//5 83//5
f  122//15 126//15 125//15
f  125//16 126//16 122//16
f  126//6 124//6 123//6
f  123//5 124//5 126//5
f  123//16 127//16 124//16
f  128//16 124//16 127//16
f  126//15 122//15 129//15
f  129//16 122//16 126//16
f  124//6 126//6 129//6
f  129//5 126//5 124//5

# Mesh 'mesh3_mesh3-geometry' with 3 faces
g mesh3_mesh3-geometry
usemtl material_2_0
l  84 89
l  84 87
l  74 84

# Mesh 'mesh4_mesh4-geometry' with 1 faces
g mesh4_mesh4-geometry
usemtl material_2_0
l  129 126

# Mesh 'mesh5_mesh5-geometry' with 26 faces
g mesh5_mesh5-geometry
usemtl material_3_24
f  123//15 130//15 131//15
f  130//15 123//15 132//15
f  133//12 131//12 130//12
f  131//31 74//31 123//31
f  123//15 134//15 132//15
f  135//32 130//32 132//32
f  131//12 133//12 136//12
f  130//32 137//32 133//32
f  131//31 83//31 74//31
f  134//15 123//15 74//15
f  135//32 132//32 134//32
f  137//32 130//32 135//32
f  136//31 138//31 131//31
f  131//31 138//31 83//31
f  134//15 74//15 139//15
f  135//32 134//32 139//32
f  138//11 137//11 135//11
f  138//31 136//31 140//31
f  138//15 88//15 83//15
f  139//15 74//15 81//15
f  135//32 139//32 141//32
f  137//11 138//11 140//11
f  135//15 88//15 138//15
f  141//15 81//15 88//15
f  139//15 81//15 141//15
f  88//15 135//15 141//15

# Mesh 'mesh5_mesh5-geometry' with 66 faces
g mesh5_mesh5-geometry
usemtl material_1_24
f  131//16 130//16 123//16
f  132//16 123//16 130//16
f  130//11 131//11 133//11
f  123//33 74//33 131//33
f  132//16 134//16 123//16
f  132//34 130//34 135//34
f  136//11 133//11 131//11
f  133//34 137//34 130//34
f  74//33 83//33 131//33
f  74//16 123//16 134//16
f  134//34 132//34 135//34
f  142//5 132//5 134//5
f  134//6 132//6 142//6
f  135//34 130//34 137//34
f  137//16 136//16 133//16
f  133//15 136//15 137//15
f  131//33 138//33 136//33
f  83//33 138//33 131//33
f  83//15 81//15 74//15
f  74//16 81//16 83//16
f  139//16 74//16 134//16
f  139//34 134//34 135//34
f  132//5 142//5 143//5
f  143//6 142//6 132//6
f  59//12 142//12 134//12
f  135//12 137//12 138//12
f  136//16 137//16 140//16
f  140//15 137//15 136//15
f  140//33 136//33 138//33
f  83//16 88//16 138//16
f  81//15 83//15 88//15
f  88//16 83//16 81//16
f  81//16 74//16 139//16
f  141//34 139//34 135//34
f  142//15 144//15 143//15
f  143//16 144//16 142//16
f  144//11 132//11 143//11
f  142//12 59//12 145//12
f  140//12 138//12 137//12
f  138//16 88//16 135//16
f  88//16 81//16 141//16
f  141//16 81//16 139//16
f  141//15 15//15 139//15
f  139//16 15//16 141//16
f  146//6 141//6 139//6
f  139//5 141//5 146//5
f  141//16 135//16 88//16
f  144//15 142//15 145//15
f  145//16 142//16 144//16
f  132//11 144//11 58//11
f  59//6 144//6 145//6
f  15//15 141//15 21//15
f  21//16 141//16 15//16
f  139//11 146//11 15//11
f  141//6 146//6 147//6
f  147//5 146//5 141//5
f  144//6 59//6 58//6
f  21//12 148//12 141//12
f  21//6 15//6 148//6
f  149//11 15//11 146//11
f  146//16 148//16 147//16
f  147//15 148//15 146//15
f  147//12 141//12 148//12
f  149//6 148//6 15//6
f  148//16 146//16 149//16
f  149//15 146//15 148//15

# Mesh 'mesh5_mesh5-geometry' with 12 faces
g mesh5_mesh5-geometry
usemtl material_0_24
f  134//11 142//11 59//11
f  143//12 132//12 144//12
f  145//11 59//11 142//11
f  58//12 144//12 132//12
f  145//5 144//5 59//5
f  15//12 146//12 139//12
f  58//5 59//5 144//5
f  141//11 148//11 21//11
f  148//5 15//5 21//5
f  146//12 15//12 149//12
f  148//11 141//11 147//11
f  15//5 148//5 149//5

# Mesh 'mesh6_mesh6-geometry' with 4 faces
g mesh6_mesh6-geometry
usemtl material_2_1_0
f  150/1/31 151/2/31 152/3/31
f  150/1/33 152/3/33 151/2/33
f  153/4/31 152/3/31 151/2/31
f  153/4/33 151/2/33 152/3/33

# Mesh 'mesh7_mesh7-geometry' with 4 faces
g mesh7_mesh7-geometry
usemtl material_2_0
l  137 140
l  137 133
l  140 136
l  133 136

# Mesh 'mesh8_mesh8-geometry' with 3 faces
g mesh8_mesh8-geometry
usemtl material_2_0
l  21 141
l  15 21
l  139 15

# Mesh 'mesh9_mesh9-geometry' with 4 faces
g mesh9_mesh9-geometry
usemtl material_2_0
l  148 147
l  149 148
l  147 146
l  146 149

# Mesh 'mesh10_mesh10-geometry' with 6 faces
g mesh10_mesh10-geometry
usemtl material_2_0
l  142 143
l  145 142
l  134 142
l  143 144
l  132 143
l  144 145

# Mesh 'mesh11_mesh11-geometry' with 1 faces
g mesh11_mesh11-geometry
usemtl material_2_0
l  154 155

