# File produced by Open Asset Import Library (http://www.assimp.sf.net)
# (assimp v3.2.202087883)

mtllib 3a982b20a1c8ebf487b2ae2815c9.mtl

# 40 vertex positions
v -0.219502 0.222891 -0.177692
v -0.177692 -0.529685 -0.219502
v -0.219502 -0.529685 -0.177692
v -0.177692 0.222891 -0.219502
v -0.219502 -0.012289 -0.133269
v -0.177692 0.254249 -0.177692
v -0.133269 -0.012289 -0.219502
v -0.219502 -0.529685 0.177692
v -0.219502 -0.012289 0.133269
v -0.219502 0.079098 -0.133269
v -0.219502 0.222891 0.177692
v 0.177692 0.254249 -0.177692
v 0.177692 -0.529685 -0.219502
v -0.133269 0.076702 -0.219502
v -0.177692 -0.529685 0.219502
v -0.219502 0.081783 0.133269
v -0.177692 0.254249 0.177692
v 0.177692 0.222891 -0.219502
v 0.133269 -0.012289 -0.219502
v 0.133269 0.076702 -0.219502
v -0.177692 0.222891 0.219502
v 0.130732 -0.009603 0.219502
v 0.177692 -0.529685 0.219502
v -0.130732 -0.009603 0.219502
v 0.219502 0.222891 -0.177692
v 0.219502 -0.529685 -0.177692
v 0.177692 0.222891 0.219502
v -0.130732 0.081783 0.219502
v 0.219502 0.222891 0.177692
v 0.219502 -0.529685 0.177692
v 0.177692 0.254249 0.177692
v 0.219502 0.081783 0.133269
v 0.219502 0.081783 -0.133269
v 0.219502 -0.012289 0.133269
v 0.130732 0.079098 0.219502
v 0.219502 -0.012289 -0.133269
v -0.177692 0.222891 -0.177692
v -0.177692 0.222891 0.177692
v 0.177692 0.222891 -0.177692
v 0.177692 0.222891 0.177692

# 0 UV coordinates

# 26 vertex normals
vn -0.0179605 0 -0.0179605
vn 0.0179605 0 0.0179605
vn -0.0254 0 0
vn 0.0254 0 0
vn -0.0130682 0.0174242 -0.0130682
vn -0 -0 0.0254
vn -0.01524 0.02032 0
vn 0 0.02032 -0.01524
vn 0.0179605 0 -0.0179605
vn 0 0 -0.0254
vn -0.0179605 -0 0.0179605
vn 0.0130682 0.0174242 0.0130682
vn 0 -0.0254 0
vn 0 0.0254 0
vn -0.0130682 0.0174242 0.0130682
vn 0.0130682 0.0174242 -0.0130682
vn 0.01524 0.02032 0
vn 0 0.02032 0.01524
vn 0.0130682 -0.0174242 0.0130682
vn 0.01524 -0.02032 0
vn -0 -0.02032 0.01524
vn 0.0130682 -0.0174242 -0.0130682
vn -0.0130682 -0.0174242 0.0130682
vn -0.01524 -0.02032 0
vn 0 -0.02032 -0.01524
vn -0.0130682 -0.0174242 -0.0130682

# Mesh 'mesh1_mesh1-geometry' with 56 faces
g mesh1_mesh1-geometry
usemtl material_0_24
f  1//1 2//1 3//1
f  2//1 1//1 4//1
f  3//2 2//2 1//2
f  4//2 1//2 2//2
f  3//3 5//3 1//3
f  1//4 5//4 3//4
f  4//5 1//5 6//5
f  4//6 2//6 7//6
f  8//3 9//3 3//3
f  3//4 9//4 8//4
f  3//3 9//3 5//3
f  5//4 9//4 3//4
f  10//3 1//3 5//3
f  5//4 1//4 10//4
f  1//7 11//7 6//7
f  12//8 4//8 6//8
f  13//6 7//6 2//6
f  14//6 4//6 7//6
f  8//9 11//9 15//9
f  9//3 8//3 16//3
f  16//4 8//4 9//4
f  16//3 1//3 10//3
f  10//4 1//4 16//4
f  17//7 6//7 11//7
f  16//3 11//3 1//3
f  1//4 11//4 16//4
f  4//8 12//8 18//8
f  7//6 13//6 19//6
f  20//6 4//6 14//6
f  21//9 15//9 11//9
f  11//3 16//3 8//3
f  8//4 16//4 11//4
f  4//6 20//6 18//6
f  18//6 19//6 13//6
f  15//10 22//10 23//10
f  21//10 24//10 15//10
f  18//11 13//11 25//11
f  20//6 19//6 18//6
f  26//11 25//11 13//11
f  27//10 23//10 22//10
f  22//10 15//10 24//10
f  28//10 24//10 21//10
f  27//10 28//10 21//10
f  29//1 30//1 27//1
f  29//12 31//12 27//12
f  25//3 32//3 29//3
f  26//3 33//3 25//3
f  26//3 30//3 34//3
f  23//1 27//1 30//1
f  35//10 27//10 22//10
f  28//10 27//10 35//10
f  29//3 34//3 30//3
f  34//3 29//3 32//3
f  33//3 32//3 25//3
f  33//3 26//3 36//3
f  36//3 26//3 34//3

# Mesh 'mesh1_mesh1-geometry' with 44 faces
g mesh1_mesh1-geometry
usemtl material_1_24
f  2//13 8//13 3//13
f  7//10 2//10 4//10
f  8//13 2//13 15//13
f  2//10 7//10 13//10
f  7//10 4//10 14//10
f  15//13 2//13 13//13
f  15//11 11//11 8//11
f  6//14 17//14 12//14
f  19//10 13//10 7//10
f  14//10 4//10 20//10
f  15//13 13//13 23//13
f  11//11 15//11 21//11
f  18//10 20//10 4//10
f  17//15 11//15 21//15
f  25//16 18//16 12//16
f  31//14 12//14 17//14
f  13//10 19//10 18//10
f  23//13 13//13 26//13
f  23//6 22//6 15//6
f  15//6 24//6 21//6
f  25//9 13//9 18//9
f  18//10 19//10 20//10
f  12//17 29//17 25//17
f  17//18 21//18 31//18
f  29//17 12//17 31//17
f  13//9 25//9 26//9
f  23//13 26//13 30//13
f  22//6 23//6 27//6
f  24//6 15//6 22//6
f  21//6 24//6 28//6
f  21//6 28//6 27//6
f  27//18 31//18 21//18
f  27//2 30//2 29//2
f  29//4 32//4 25//4
f  25//4 33//4 26//4
f  34//4 30//4 26//4
f  30//2 27//2 23//2
f  22//6 27//6 35//6
f  35//6 27//6 28//6
f  30//4 34//4 29//4
f  32//4 29//4 34//4
f  25//4 32//4 33//4
f  36//4 26//4 33//4
f  34//4 26//4 36//4

# Mesh 'mesh1_mesh1-geometry' with 76 faces
g mesh1_mesh1-geometry
usemtl material_2_24
f  3//14 8//14 2//14
f  4//14 1//14 37//14
f  37//13 1//13 4//13
f  6//19 1//19 4//19
f  15//14 2//14 8//14
f  1//14 38//14 37//14
f  37//13 38//13 1//13
f  6//6 1//6 37//6
f  37//10 1//10 6//10
f  39//14 4//14 37//14
f  37//13 4//13 39//13
f  4//3 37//3 6//3
f  6//4 37//4 4//4
f  6//20 11//20 1//20
f  6//21 4//21 12//21
f  13//14 2//14 15//14
f  38//14 1//14 11//14
f  11//13 1//13 38//13
f  37//14 38//14 40//14
f  40//13 38//13 37//13
f  37//6 12//6 6//6
f  6//10 12//10 37//10
f  4//14 39//14 18//14
f  18//13 39//13 4//13
f  37//14 40//14 39//14
f  39//13 40//13 37//13
f  12//6 37//6 39//6
f  39//10 37//10 12//10
f  11//20 6//20 17//20
f  18//21 12//21 4//21
f  12//13 17//13 6//13
f  23//14 13//14 15//14
f  38//14 11//14 21//14
f  21//13 11//13 38//13
f  17//6 11//6 38//6
f  38//10 11//10 17//10
f  38//14 27//14 40//14
f  40//13 27//13 38//13
f  31//6 38//6 40//6
f  40//10 38//10 31//10
f  25//14 18//14 39//14
f  39//13 18//13 25//13
f  18//3 39//3 12//3
f  12//4 39//4 18//4
f  29//14 39//14 40//14
f  40//13 39//13 29//13
f  40//3 12//3 39//3
f  39//4 12//4 40//4
f  12//6 39//6 25//6
f  25//10 39//10 12//10
f  21//22 11//22 17//22
f  12//23 18//23 25//23
f  17//13 12//13 31//13
f  26//14 13//14 23//14
f  27//14 38//14 21//14
f  21//13 38//13 27//13
f  17//4 21//4 38//4
f  38//3 21//3 17//3
f  38//6 31//6 17//6
f  17//10 31//10 38//10
f  29//14 40//14 27//14
f  27//13 40//13 29//13
f  40//3 27//3 31//3
f  31//4 27//4 40//4
f  12//3 40//3 31//3
f  31//4 40//4 12//4
f  31//6 40//6 29//6
f  29//10 40//10 31//10
f  39//14 29//14 25//14
f  25//13 29//13 39//13
f  25//24 29//24 12//24
f  31//25 21//25 17//25
f  31//24 12//24 29//24
f  30//14 26//14 23//14
f  21//25 31//25 27//25
f  27//26 31//26 29//26

# Mesh 'mesh1_mesh1-geometry' with 16 faces
g mesh1_mesh1-geometry
usemtl material_3_24
f  9//3 10//3 5//3
f  5//4 10//4 9//4
f  14//10 19//10 7//10
f  7//6 19//6 14//6
f  10//3 9//3 16//3
f  16//4 9//4 10//4
f  19//10 14//10 20//10
f  20//6 14//6 19//6
f  35//6 24//6 22//6
f  22//10 24//10 35//10
f  24//6 35//6 28//6
f  28//10 35//10 24//10
f  36//4 32//4 34//4
f  34//3 32//3 36//3
f  32//4 36//4 33//4
f  33//3 36//3 32//3

# Mesh 'mesh2_mesh2-geometry' with 15 faces
g mesh2_mesh2-geometry
usemtl material_2_0
l  4 37
l  1 37
l  37 6
l  37 39
l  25 39
l  39 18
l  39 12
l  40 39
l  40 29
l  27 40
l  40 31
l  38 40
l  38 21
l  11 38
l  38 17

