# File produced by Open Asset Import Library (http://www.assimp.sf.net)
# (assimp v3.2.202087883)

mtllib 774fcae246e7ad25c8724d5673a063a6.mtl

# 64 vertex positions
v -0.124092 0.176327 0.096079
v -0.093069 -0.040495 0.108221
v -0.124092 -0.040495 0.108221
v -0.093069 0.176327 0.096079
v -0.093069 -0.040422 0.109511
v -0.124092 0.176399 0.097370
v -0.093069 0.176254 0.094788
v -0.093069 0.207373 0.095635
v -0.124092 -0.040422 0.109511
v -0.124092 0.176254 0.094788
v 0.093069 0.176327 0.096079
v -0.093069 0.207301 0.094344
v -0.093069 0.207228 0.093054
v 0.093069 0.176254 0.094788
v 0.093069 0.207228 0.093054
v 0.124092 0.176327 0.096079
v 0.093069 0.207301 0.094344
v 0.124092 0.176254 0.094788
v 0.093069 -0.040495 0.108221
v 0.093069 0.207373 0.095635
v 0.124092 -0.040495 0.108221
v 0.124092 0.176399 0.097370
v 0.124092 -0.040422 0.109511
v 0.093069 -0.040422 0.109511
v 0.124092 0.176327 -0.094543
v 0.093069 -0.040495 -0.106685
v 0.124092 -0.040495 -0.106685
v 0.093069 0.176327 -0.094543
v 0.093069 -0.040422 -0.107975
v 0.124092 0.176399 -0.095833
v 0.093069 0.176254 -0.093252
v 0.093069 0.207373 -0.094099
v 0.124092 -0.040422 -0.107975
v 0.124092 0.176254 -0.093252
v -0.093069 0.176327 -0.094543
v 0.093069 0.207301 -0.092808
v 0.093069 0.207228 -0.091517
v -0.093069 0.176254 -0.093252
v -0.093069 0.207228 -0.091517
v -0.124092 0.176327 -0.094543
v -0.093069 0.207301 -0.092808
v -0.124092 0.176254 -0.093252
v -0.093069 -0.040495 -0.106685
v -0.093069 0.207373 -0.094099
v -0.124092 -0.040495 -0.106685
v -0.124092 0.176399 -0.095833
v -0.124092 -0.040422 -0.107975
v -0.093069 -0.040422 -0.107975
v 0.248184 0.083403 -0.099746
v 0.223365 0.083403 0.000768
v 0.223365 -0.475011 0.000768
v 0.248184 0.083403 0.101283
v 0.248184 -0.614614 -0.138835
v 0.248184 -0.614614 0.140372
v -0.248184 0.083403 -0.099746
v -0.248184 -0.614614 0.140372
v -0.248184 -0.614614 -0.138835
v 0.235403 -0.614614 -0.023814
v -0.248184 0.083403 0.101283
v -0.232672 -0.614614 0.000768
v -0.235403 -0.614614 -0.023814
v -0.223365 -0.475011 0.000768
v 0.232672 -0.614614 0.000768
v -0.223365 0.083403 0.000768

# 0 UV coordinates

# 44 vertex normals
vn -0 -0.00142016 -0.0253603
vn 0 0.00142016 0.0253603
vn 0 -0.0253603 0.00142016
vn 0 0.0253603 -0.00142016
vn -0.0254 0 0
vn 0.0254 0 0
vn -0.0179605 0.0179324 -0.00100421
vn 0.0179605 -0.0179324 0.00100421
vn 0.0179605 0.0179324 -0.00100421
vn -0.0179605 -0.0179324 0.00100421
vn 0 -0.00142016 0.0253603
vn 0 0.00142016 -0.0253603
vn -0 -0.0253603 -0.00142016
vn 0 0.0253603 0.00142016
vn 0.0179605 0.0179324 0.00100421
vn -0.0179605 -0.0179324 -0.00100421
vn -0.0179605 0.0179324 0.00100421
vn 0.0179605 -0.0179324 -0.00100421
vn 0.0248197 -0.000131674 0.00539681
vn 0.0246594 0 0.00608873
vn -0.0248197 0.000131674 -0.00539681
vn -0.0246594 0 -0.00608873
vn 0.0246594 0 -0.00608873
vn 0.0248197 -0.000131674 -0.00539681
vn -0.0248197 0.000131674 0.00539681
vn -0.0246594 0 0.00608873
vn 0.0249599 -0.00026322 0.00470055
vn -0.0249599 0.00026322 -0.00470055
vn 0.0249599 -0.00026322 -0.00470055
vn -0.0249599 0.00026322 0.00470055
vn 0.0250079 0.00444584 0
vn -0.0250079 -0.00444584 0
vn 0 -0.0254 0
vn 0 0.0254 0
vn -0.0249599 -0.00026322 0.00470055
vn -0.0248197 -0.000131674 0.00539681
vn 0.0248197 0.000131674 -0.00539681
vn 0.0249599 0.00026322 -0.00470055
vn -0.0248197 -0.000131674 -0.00539681
vn -0.0249599 -0.00026322 -0.00470055
vn 0.0248197 0.000131674 0.00539681
vn 0.0249599 0.00026322 0.00470055
vn -0.0250079 0.00444584 0
vn 0.0250079 -0.00444584 0

# Mesh 'mesh1_mesh1-geometry' with 88 faces
g mesh1_mesh1-geometry
usemtl material_0_24
f  1//1 2//1 3//1
f  2//1 1//1 4//1
f  3//2 2//2 1//2
f  4//2 1//2 2//2
f  5//3 3//3 2//3
f  2//4 3//4 5//4
f  3//5 6//5 1//5
f  1//6 6//6 3//6
f  1//3 7//3 4//3
f  4//4 7//4 1//4
f  8//6 2//6 4//6
f  4//5 2//5 8//5
f  3//3 5//3 9//3
f  9//4 5//4 3//4
f  2//6 8//6 5//6
f  5//5 8//5 2//5
f  6//5 3//5 9//5
f  9//6 3//6 6//6
f  8//7 1//7 6//7
f  6//8 1//8 8//8
f  7//3 1//3 10//3
f  10//4 1//4 7//4
f  7//3 11//3 4//3
f  4//4 11//4 7//4
f  8//6 4//6 12//6
f  12//5 4//5 8//5
f  5//2 6//2 9//2
f  9//1 6//1 5//1
f  6//2 5//2 8//2
f  8//1 5//1 6//1
f  12//7 1//7 8//7
f  8//8 1//8 12//8
f  1//7 13//7 10//7
f  10//8 13//8 1//8
f  13//1 7//1 10//1
f  10//2 7//2 13//2
f  11//3 7//3 14//3
f  14//4 7//4 11//4
f  11//2 12//2 4//2
f  4//1 12//1 11//1
f  13//7 1//7 12//7
f  12//8 1//8 13//8
f  7//1 13//1 15//1
f  15//2 13//2 7//2
f  7//1 15//1 14//1
f  14//2 15//2 7//2
f  14//3 16//3 11//3
f  11//4 16//4 14//4
f  12//2 11//2 17//2
f  17//1 11//1 12//1
f  17//4 13//4 12//4
f  12//3 13//3 17//3
f  13//4 17//4 15//4
f  15//3 17//3 13//3
f  14//1 15//1 18//1
f  18//2 15//2 14//2
f  16//3 14//3 18//3
f  18//4 14//4 16//4
f  16//1 19//1 11//1
f  11//2 19//2 16//2
f  11//5 20//5 17//5
f  17//6 20//6 11//6
f  16//9 15//9 17//9
f  17//10 15//10 16//10
f  15//9 16//9 18//9
f  18//10 16//10 15//10
f  19//1 16//1 21//1
f  21//2 16//2 19//2
f  19//5 20//5 11//5
f  11//6 20//6 19//6
f  22//9 17//9 20//9
f  20//10 17//10 22//10
f  16//9 17//9 22//9
f  22//10 17//10 16//10
f  22//6 21//6 16//6
f  16//5 21//5 22//5
f  23//3 19//3 21//3
f  21//4 19//4 23//4
f  20//5 19//5 24//5
f  24//6 19//6 20//6
f  20//2 23//2 22//2
f  22//1 23//1 20//1
f  21//6 22//6 23//6
f  23//5 22//5 21//5
f  19//3 23//3 24//3
f  24//4 23//4 19//4
f  23//2 20//2 24//2
f  24//1 20//1 23//1

# Mesh 'mesh2_mesh2-geometry' with 40 faces
g mesh2_mesh2-geometry
usemtl material_0_0
l  4 1
l  4 2
l  11 4
l  12 4
l  4 7
l  3 1
l  1 10
l  1 6
l  2 5
l  2 3
l  11 17
l  16 11
l  11 14
l  19 11
l  12 17
l  12 13
l  12 8
l  7 10
l  14 7
l  3 9
l  10 13
l  9 6
l  6 8
l  5 9
l  8 5
l  17 20
l  17 15
l  16 18
l  16 21
l  16 22
l  18 14
l  19 24
l  21 19
l  13 15
l  24 20
l  22 20
l  18 15
l  21 23
l  22 23
l  23 24

# Mesh 'mesh1_mesh1-geometry' with 88 faces
g mesh1_mesh1-geometry
usemtl material_0_24
f  25//11 26//11 27//11
f  26//11 25//11 28//11
f  27//12 26//12 25//12
f  28//12 25//12 26//12
f  29//13 27//13 26//13
f  26//14 27//14 29//14
f  27//6 30//6 25//6
f  25//5 30//5 27//5
f  25//13 31//13 28//13
f  28//14 31//14 25//14
f  32//5 26//5 28//5
f  28//6 26//6 32//6
f  27//13 29//13 33//13
f  33//14 29//14 27//14
f  26//5 32//5 29//5
f  29//6 32//6 26//6
f  30//6 27//6 33//6
f  33//5 27//5 30//5
f  32//15 25//15 30//15
f  30//16 25//16 32//16
f  31//13 25//13 34//13
f  34//14 25//14 31//14
f  31//13 35//13 28//13
f  28//14 35//14 31//14
f  32//5 28//5 36//5
f  36//6 28//6 32//6
f  29//12 30//12 33//12
f  33//11 30//11 29//11
f  30//12 29//12 32//12
f  32//11 29//11 30//11
f  36//15 25//15 32//15
f  32//16 25//16 36//16
f  25//15 37//15 34//15
f  34//16 37//16 25//16
f  37//11 31//11 34//11
f  34//12 31//12 37//12
f  35//13 31//13 38//13
f  38//14 31//14 35//14
f  35//12 36//12 28//12
f  28//11 36//11 35//11
f  37//15 25//15 36//15
f  36//16 25//16 37//16
f  31//11 37//11 39//11
f  39//12 37//12 31//12
f  31//11 39//11 38//11
f  38//12 39//12 31//12
f  38//13 40//13 35//13
f  35//14 40//14 38//14
f  36//12 35//12 41//12
f  41//11 35//11 36//11
f  41//14 37//14 36//14
f  36//13 37//13 41//13
f  37//14 41//14 39//14
f  39//13 41//13 37//13
f  38//11 39//11 42//11
f  42//12 39//12 38//12
f  40//13 38//13 42//13
f  42//14 38//14 40//14
f  40//11 43//11 35//11
f  35//12 43//12 40//12
f  35//6 44//6 41//6
f  41//5 44//5 35//5
f  40//17 39//17 41//17
f  41//18 39//18 40//18
f  39//17 40//17 42//17
f  42//18 40//18 39//18
f  43//11 40//11 45//11
f  45//12 40//12 43//12
f  43//6 44//6 35//6
f  35//5 44//5 43//5
f  46//17 41//17 44//17
f  44//18 41//18 46//18
f  40//17 41//17 46//17
f  46//18 41//18 40//18
f  46//5 45//5 40//5
f  40//6 45//6 46//6
f  47//13 43//13 45//13
f  45//14 43//14 47//14
f  44//6 43//6 48//6
f  48//5 43//5 44//5
f  44//12 47//12 46//12
f  46//11 47//11 44//11
f  45//5 46//5 47//5
f  47//6 46//6 45//6
f  43//13 47//13 48//13
f  48//14 47//14 43//14
f  47//12 44//12 48//12
f  48//11 44//11 47//11

# Mesh 'mesh2_mesh2-geometry' with 40 faces
g mesh2_mesh2-geometry
usemtl material_0_0
l  28 25
l  28 26
l  35 28
l  36 28
l  28 31
l  27 25
l  25 34
l  25 30
l  26 29
l  26 27
l  35 41
l  40 35
l  35 38
l  43 35
l  36 41
l  36 37
l  36 32
l  31 34
l  38 31
l  27 33
l  34 37
l  33 30
l  30 32
l  29 33
l  32 29
l  41 44
l  41 39
l  40 42
l  40 45
l  40 46
l  42 38
l  43 48
l  45 43
l  37 39
l  48 44
l  46 44
l  42 39
l  45 47
l  46 47
l  47 48

# Mesh 'mesh3_mesh3-geometry' with 48 faces
g mesh3_mesh3-geometry
usemtl material_0_24
f  49//19 50//20 51//19
f  51//21 50//22 49//21
f  50//23 52//24 51//24
f  51//25 52//25 50//26
f  53//27 49//19 51//19
f  51//21 49//21 53//28
f  51//24 52//24 54//29
f  54//30 52//25 51//25
f  53//12 55//12 49//12
f  49//11 55//11 53//11
f  53//31 51//31 54//31
f  54//32 51//32 53//32
f  52//2 56//2 54//2
f  54//1 56//1 52//1
f  55//12 53//12 57//12
f  57//11 53//11 55//11
f  54//33 58//33 53//33
f  53//34 58//34 54//34
f  56//2 52//2 59//2
f  59//1 52//1 56//1
f  56//33 60//33 54//33
f  54//34 60//34 56//34
f  53//33 61//33 57//33
f  57//34 61//34 53//34
f  57//35 62//36 55//36
f  55//37 62//37 57//38
f  54//33 63//33 58//33
f  58//34 63//34 54//34
f  60//33 53//33 58//33
f  58//34 53//34 60//34
f  62//39 56//40 59//39
f  59//41 56//42 62//41
f  60//33 56//33 61//33
f  61//34 56//34 60//34
f  54//33 60//33 63//33
f  63//34 60//34 54//34
f  61//33 53//33 60//33
f  60//34 53//34 61//34
f  61//33 56//33 57//33
f  57//34 56//34 61//34
f  57//43 56//43 62//43
f  62//44 56//44 57//44
f  55//36 62//36 64//26
f  64//23 62//37 55//37
f  60//33 58//33 63//33
f  63//34 58//34 60//34
f  62//39 59//39 64//22
f  64//20 59//41 62//41

# Mesh 'mesh4_mesh4-geometry' with 21 faces
g mesh4_mesh4-geometry
usemtl material_0_0
l  51 53
l  50 51
l  51 54
l  53 49
l  58 53
l  57 53
l  53 54
l  54 52
l  54 56
l  54 58
l  63 58
l  61 57
l  56 57
l  57 55
l  62 57
l  56 59
l  62 56
l  56 61
l  63 60
l  60 61
l  64 62

