# File produced by Open Asset Import Library (http://www.assimp.sf.net)
# (assimp v3.2.202087883)

mtllib 2f1aed8925147120c62ac18334863d36.mtl

# 60 vertex positions
v 0.101754 -0.448129 -0.205332
v -0.103578 -0.448129 -0.150313
v -0.008283 -0.448129 -0.205332
v 0.197048 -0.448129 -0.150313
v -0.103578 0.249119 -0.150313
v 0.101754 0.249119 -0.205332
v -0.158597 -0.448129 -0.055019
v -0.008283 0.249119 -0.205332
v -0.158597 -0.395595 -0.055019
v 0.197048 0.249119 -0.150313
v 0.252068 -0.448129 -0.055019
v -0.158597 -0.344577 -0.055019
v -0.158597 -0.448129 0.055019
v -0.158597 -0.395595 0.055019
v -0.158597 0.249119 -0.055019
v 0.252068 0.249119 -0.055019
v 0.252068 -0.448129 0.055019
v -0.103578 0.266125 -0.150313
v -0.008283 0.317143 -0.205332
v -0.008283 0.266125 -0.205332
v 0.101754 0.317143 -0.205332
v 0.101754 0.266125 -0.205332
v -0.158597 0.249119 0.055019
v 0.197048 0.317143 -0.150313
v 0.197048 0.266125 -0.150313
v -0.103578 -0.448129 0.150313
v -0.103578 0.249119 0.150313
v -0.158597 0.317143 -0.055019
v -0.158597 0.266125 -0.055019
v -0.103578 0.317143 -0.150313
v -0.158597 -0.387092 0.046516
v -0.243627 -0.404098 -0.046516
v -0.158597 -0.387092 -0.046516
v -0.158597 -0.378589 -0.046516
v -0.158597 -0.344577 0.055019
v 0.252068 0.266125 -0.055019
v 0.252068 0.249119 0.055019
v 0.197048 -0.448129 0.150313
v -0.158597 0.317143 0.055019
v -0.243627 -0.404098 0.046516
v -0.243627 -0.395595 -0.046516
v -0.158597 0.266125 0.055019
v 0.252068 0.317143 -0.055019
v -0.008283 -0.448129 0.205332
v -0.243627 -0.395595 0.046516
v -0.158597 -0.378589 0.046516
v -0.103578 0.317143 0.150313
v -0.103578 0.266125 0.150313
v 0.252068 0.266125 0.055019
v 0.197048 0.249119 0.150313
v 0.101754 -0.448129 0.205332
v -0.008283 0.249119 0.205332
v 0.252068 0.317143 0.055019
v -0.008283 0.266125 0.205332
v 0.101754 0.249119 0.205332
v -0.008283 0.317143 0.205332
v 0.197048 0.317143 0.150313
v 0.197048 0.266125 0.150313
v 0.101754 0.317143 0.205332
v 0.101754 0.266125 0.205332

# 0 UV coordinates

# 20 vertex normals
vn 0 -0.0254 0
vn -0.0179605 0 -0.0179605
vn -0.006574 0 -0.0245345
vn 0.006574 0 -0.0245345
vn 0.0179605 0 -0.0179605
vn -0.0245345 0 -0.006574
vn 0.0245345 0 -0.006574
vn -0.0245345 0 0.006574
vn 0.0245345 0 0.006574
vn -0.0179605 0 0.0179605
vn 0.00498135 -0.0249068 0
vn 0 0 -0.0254
vn 0 0.0254 0
vn 0.0179605 0 0.0179605
vn -0.006574 0 0.0245345
vn 0 0 0.0254
vn -0.0254 0 0
vn -0.00498135 0.0249068 0
vn 0.006574 0 0.0245345
vn 0.0254 0 0

# Mesh 'mesh1_mesh1-geometry' with 84 faces
g mesh1_mesh1-geometry
usemtl material_0_24
f  1//1 2//1 3//1
f  2//1 1//1 4//1
f  5//2 3//3 2//2
f  3//3 6//4 1//4
f  6//4 4//5 1//4
f  2//1 4//1 7//1
f  3//3 5//2 8//3
f  2//2 9//6 5//2
f  6//4 3//3 8//3
f  4//5 6//4 10//5
f  7//1 4//1 11//1
f  9//6 2//2 7//6
f  5//2 9//6 12//6
f  10//5 11//7 4//5
f  7//1 11//1 13//1
f  7//6 14//8 9//6
f  5//2 12//6 15//6
f  11//7 10//5 16//7
f  13//1 11//1 17//1
f  14//8 7//6 13//8
f  18//2 19//3 20//3
f  20//3 21//4 22//4
f  12//6 23//8 15//6
f  22//4 24//5 25//5
f  16//7 17//9 11//7
f  13//1 17//1 26//1
f  13//8 27//10 14//8
f  28//6 18//2 29//6
f  19//3 18//2 30//2
f  21//4 20//3 19//3
f  24//5 22//4 21//4
f  31//11 32//11 33//11
f  32//12 34//12 33//12
f  23//8 12//6 35//8
f  24//5 36//7 25//5
f  17//9 16//7 37//9
f  26//1 17//1 38//1
f  27//10 13//8 26//10
f  14//8 27//10 35//8
f  18//2 28//6 30//2
f  29//6 39//8 28//6
f  30//13 21//13 19//13
f  21//13 30//13 24//13
f  32//11 31//11 40//11
f  34//12 32//12 41//12
f  35//8 27//10 23//8
f  39//8 29//6 42//8
f  36//7 24//5 43//7
f  37//9 38//14 17//9
f  26//1 38//1 44//1
f  44//15 27//10 26//10
f  45//16 31//16 46//16
f  24//13 30//13 28//13
f  43//13 28//13 39//13
f  31//16 45//16 40//16
f  45//17 32//17 40//17
f  32//17 45//17 41//17
f  41//18 46//18 34//18
f  47//10 42//8 48//10
f  42//8 47//10 39//8
f  24//13 28//13 43//13
f  43//7 49//9 36//7
f  38//14 37//9 50//14
f  44//1 38//1 51//1
f  27//10 44//15 52//15
f  46//18 41//18 45//18
f  43//13 39//13 53//13
f  54//15 47//10 48//10
f  53//13 39//13 47//13
f  49//9 43//7 53//9
f  55//19 38//14 50//14
f  38//14 55//19 51//19
f  51//19 52//15 44//15
f  47//10 54//15 56//15
f  53//13 47//13 57//13
f  53//9 58//14 49//9
f  52//15 51//19 55//19
f  54//15 59//19 56//15
f  57//13 47//13 56//13
f  58//14 53//9 57//14
f  58//14 59//19 60//19
f  59//19 54//15 60//19
f  57//13 56//13 59//13
f  59//19 58//14 57//14

# Mesh 'mesh1_mesh1-geometry' with 116 faces
g mesh1_mesh1-geometry
usemtl material_1_24
f  3//13 2//13 1//13
f  4//13 1//13 2//13
f  2//14 3//19 5//14
f  1//15 6//15 3//19
f  1//15 4//10 6//15
f  7//13 4//13 2//13
f  8//19 5//14 3//19
f  5//14 9//9 2//14
f  8//19 3//19 6//15
f  10//10 6//15 4//10
f  11//13 4//13 7//13
f  7//9 2//14 9//9
f  8//19 20//19 5//14
f  12//9 9//9 5//14
f  6//15 22//15 8//19
f  10//10 25//10 6//15
f  4//10 11//8 10//10
f  13//13 11//13 7//13
f  9//9 14//7 7//9
f  18//14 5//14 20//19
f  20//19 8//19 22//15
f  12//20 33//20 9//20
f  15//9 12//9 5//14
f  22//15 6//15 25//10
f  10//10 16//8 25//10
f  16//8 10//10 11//8
f  17//13 11//13 13//13
f  13//7 7//9 14//7
f  9//20 31//20 14//20
f  18//14 29//9 5//14
f  20//19 19//19 18//14
f  22//15 21//15 20//19
f  31//20 9//20 33//20
f  34//20 33//20 12//20
f  15//9 23//7 12//9
f  15//9 5//14 29//9
f  25//10 24//10 22//15
f  36//8 25//10 16//8
f  11//8 17//6 16//8
f  26//13 17//13 13//13
f  14//7 27//5 13//7
f  35//20 14//20 31//20
f  29//9 18//14 28//9
f  30//14 18//14 19//19
f  19//19 20//19 21//15
f  21//15 22//15 24//10
f  33//18 32//18 31//18
f  33//16 34//16 32//16
f  35//20 34//20 12//20
f  35//7 12//9 23//7
f  23//7 15//9 42//7
f  29//9 42//7 15//9
f  25//10 36//8 24//10
f  16//8 37//6 36//8
f  37//6 16//8 17//6
f  38//13 17//13 26//13
f  26//5 13//7 27//5
f  35//7 27//5 14//7
f  46//20 35//20 31//20
f  30//14 28//9 18//14
f  28//9 39//7 29//9
f  19//1 21//1 30//1
f  24//1 30//1 21//1
f  40//18 31//18 32//18
f  41//16 32//16 34//16
f  34//20 35//20 46//20
f  23//7 27//5 35//7
f  42//7 48//5 23//7
f  42//7 29//9 39//7
f  43//8 24//10 36//8
f  49//6 36//8 37//6
f  17//6 38//2 37//6
f  44//13 38//13 26//13
f  26//5 27//5 44//4
f  46//12 31//12 45//12
f  28//1 30//1 24//1
f  39//1 28//1 43//1
f  40//12 45//12 31//12
f  40//20 32//20 45//20
f  41//20 45//20 32//20
f  34//11 46//11 41//11
f  27//5 23//7 48//5
f  48//5 42//7 47//5
f  39//7 47//5 42//7
f  43//1 28//1 24//1
f  36//8 49//6 43//8
f  37//6 50//2 49//6
f  50//2 37//6 38//2
f  51//13 38//13 44//13
f  52//4 44//4 27//5
f  45//11 41//11 46//11
f  53//1 39//1 43//1
f  27//5 48//5 52//4
f  48//5 47//5 54//4
f  47//1 39//1 53//1
f  53//6 43//8 49//6
f  58//2 49//6 50//2
f  50//2 38//2 55//3
f  51//3 55//3 38//2
f  44//4 52//4 51//3
f  54//4 52//4 48//5
f  56//4 54//4 47//5
f  57//1 47//1 53//1
f  49//6 58//2 53//6
f  58//2 50//2 60//3
f  55//3 60//3 50//2
f  55//3 51//3 52//4
f  52//4 54//4 55//3
f  56//4 59//3 54//4
f  56//1 47//1 57//1
f  57//2 53//6 58//2
f  60//3 59//3 58//2
f  60//3 55//3 54//4
f  60//3 54//4 59//3
f  59//1 56//1 57//1
f  57//2 58//2 59//3

# Mesh 'mesh1_mesh1-geometry' with 32 faces
g mesh1_mesh1-geometry
usemtl material_2_24
f  5//2 20//3 8//3
f  8//3 22//4 6//4
f  6//4 25//5 10//5
f  20//3 5//2 18//2
f  22//4 8//3 20//3
f  9//17 33//17 12//17
f  25//5 6//4 22//4
f  25//5 16//7 10//5
f  14//17 31//17 9//17
f  5//2 29//6 18//2
f  33//17 9//17 31//17
f  12//17 33//17 34//17
f  29//6 5//2 15//6
f  16//7 25//5 36//7
f  31//17 14//17 35//17
f  12//17 34//17 35//17
f  42//8 15//6 23//8
f  15//6 42//8 29//6
f  36//7 37//9 16//7
f  31//17 35//17 46//17
f  46//17 35//17 34//17
f  23//8 48//10 42//8
f  37//9 36//7 49//9
f  48//10 23//8 27//10
f  49//9 50//14 37//9
f  52//15 48//10 27//10
f  50//14 49//9 58//14
f  48//10 52//15 54//15
f  60//19 50//14 58//14
f  50//14 60//19 55//19
f  55//19 54//15 52//15
f  54//15 55//19 60//19

